<?xml version="1.0" encoding="utf-8"?>
<!-- Generator: Adobe Illustrator 21.0.0, SVG Export Plug-In . SVG Version: 6.00 Build 0)  -->
<svg version="1.1" xmlns="http://www.w3.org/2000/svg" xmlns:xlink="http://www.w3.org/1999/xlink" x="0px" y="0px"
	 viewBox="0 0 800 800" style="enable-background:new 0 0 800 800;" xml:space="preserve">
<style type="text/css">
	.st0{display:none;}
	.st1{display:inline;fill:#E5EAE7;}
	.st2{display:none;opacity:0.1;fill:#062E66;}
	.st3{display:none;fill:#6BC0DD;}
	.st4{display:none;fill:#BCE1E9;}
	.st5{display:none;fill:#FFFFFF;}
	.st6{display:inline;fill-rule:evenodd;clip-rule:evenodd;fill:#98AFA1;}
	.st7{display:inline;opacity:0.1;fill:url(#SVGID_1_);}
	.st8{display:inline;}
	.st9{opacity:0.15;}
	.st10{fill:#0A3D54;}
	.st11{fill:#FF7664;}
	.st12{fill:#66BEE5;}
	.st13{fill:#F0E160;}
	.st14{fill:#49C47B;}
	.st15{display:inline;opacity:0.15;fill:url(#SVGID_2_);}
	.st16{fill:#E2CCCF;}
	.st17{display:inline;opacity:0.15;fill:url(#SVGID_3_);}
	.st18{display:inline;opacity:0.15;fill:url(#SVGID_4_);}
	.st19{fill:#4C210C;}
	.st20{fill:#E2B04D;}
	.st21{fill:#868686;}
	.st22{display:inline;opacity:0.15;fill:url(#SVGID_5_);}
	.st23{fill:#FFFFFF;}
	.st24{fill:#F9F7EA;}
	.st25{opacity:0.1;fill:url(#SVGID_6_);}
	.st26{fill:#575756;}
	.st27{fill:#ABDDEF;}
	.st28{fill:#E6F7FC;}
	.st29{opacity:0.1;fill:url(#SVGID_7_);}
	.st30{opacity:0.1;fill:url(#SVGID_8_);}
	.st31{opacity:0.3;}
	.st32{opacity:0.15;fill:url(#SVGID_9_);}
	.st33{opacity:0.1;}
	.st34{fill:#70706E;}
	.st35{fill:none;stroke:#9A9A9A;stroke-width:0.7171;stroke-miterlimit:10;}
	.st36{fill:#FF755A;}
	.st37{opacity:0.9;fill:#FFFFFF;}
	.st38{fill:#585756;}
	.st39{display:inline;opacity:0.15;fill:url(#SVGID_10_);}
	.st40{fill:#9491C6;}
	.st41{opacity:0.15;fill:url(#SVGID_11_);}
	.st42{opacity:0.8;fill:#F9F7EA;}
	.st43{fill:#3C3C3B;}
	.st44{opacity:0.15;fill:url(#SVGID_12_);}
	.st45{opacity:0.1;fill:#062E66;}
	.st46{fill:#062E66;}
	.st47{fill:url(#SVGID_13_);}
	.st48{fill:none;}
	.st49{font-family:'HoboStd';}
	.st50{font-size:100px;}
</style>
<g id="Background" class="st0">
	<rect class="st1" width="800" height="800"/>
</g>
<g id="Objects">
	<path class="st2" d="M498.5,638.5h-34.5l-0.1-28.2c0-0.4,0-0.8-0.1-1.2c2.1-0.1,3.7-1.7,3.7-3.7l0-1.9c0-2-1.7-3.7-3.9-3.7l-2.3,0
		l0-2c1.2-0.2,2-1.1,2-2.3c0-1.3-1.1-2.3-2.4-2.3l-16.2,0.1c-1.3,0-2.4,1.1-2.4,2.3c0,1.2,0.9,2.1,2,2.3l0,2l-2.3,0
		c-2.1,0-3.9,1.7-3.8,3.7l0,1.9c0,2,1.7,3.7,3.9,3.7h0.1c0,0.4-0.1,0.8-0.1,1.2l0.1,28.1h-22.2l-0.1-28c0-0.4,0-0.8-0.1-1.2
		c2.1-0.1,3.7-1.7,3.7-3.7l0-1.9c0-2-1.7-3.7-3.9-3.7l-2.3,0l0-2c1.2-0.2,2-1.1,2-2.3c0-1.3-1.1-2.3-2.4-2.3l-16.2,0.1
		c-1.3,0-2.4,1.1-2.4,2.3c0,1.2,0.9,2.1,2,2.3l0,2l-2.3,0c-2.1,0-3.9,1.7-3.8,3.7l0,1.9c0,2,1.7,3.7,3.9,3.7l0.1,0
		c0,0.4-0.1,0.8-0.1,1.2l0.1,27.9h-22.2l0-10.5c0,0,0.1,0,0.1,0c0.3-0.1,0.5-0.2,0.7-0.3c0.5-0.1,0.9-0.3,1.2-0.3
		c0.3,0,0.5-0.1,0.5-0.1s-0.2,0-0.5,0c-0.1,0-0.3,0-0.5,0c-0.2,0-0.5,0-0.7,0.1c-0.2,0-0.5,0.1-0.7,0.2l-0.1-16.9
		c0-0.4,0-0.8-0.1-1.2c2.1-0.1,3.7-1.7,3.7-3.7l0-1.9c0-2-1.7-3.7-3.9-3.7l-2.3,0l0-2c1.2-0.2,2-1.1,2-2.3c0-1.3-1.1-2.3-2.4-2.3
		l-16.2,0.1c-1.3,0-2.4,1.1-2.4,2.3c0,1.2,0.9,2.1,2,2.3l0,2l-2.3,0c-2.1,0-3.9,1.7-3.8,3.7l0,1.9c0,2,1.7,3.7,3.9,3.7h0.1
		c0,0.4-0.1,0.8-0.1,1.2l0.1,27.8h-28v4.6h28l0.1,27.9c0,5.8,5,10.5,11,10.5c6.1,0,10.9-4.7,10.9-10.5l-0.1-27.8h11v45.7h-0.6
		c-1.4,0-2.6,1.4-2.6,3.1h0.5h0.5h9h0.5h0.5c0-1.7-1.2-3.1-2.6-3.1h-0.3V643h6.5l0.1,27.8c0,5.8,4.9,10.5,11,10.5
		c6,0,10.9-4.7,10.9-10.5L420,643h11.2v45.7h-0.5c-1.4,0-2.6,1.4-2.6,3.1h0.5h0.5h9h0.5h0.5c0-1.7-1.2-3.1-2.6-3.1h-0.5V643h6.3
		l0.1,27.6c0,5.8,4.9,10.5,11,10.5c6.1,0,10.9-4.7,10.9-10.5l-0.1-27.5h34.4V638.5z"/>
	<path class="st3" d="M657.7,438.3"/>
	<path class="st3" d="M624.8,597.3"/>
	<path class="st4" d="M367.2,633.4c0,0,0-0.2,0-0.4c0-0.1,0-0.3,0-0.5c0-0.2,0-0.4,0.1-0.7c0-0.2,0.1-0.5,0.2-0.8
		c0.1-0.3,0.2-0.6,0.4-0.8c0.2-0.3,0.3-0.6,0.5-0.8c0.2-0.3,0.4-0.5,0.7-0.8c0.3-0.2,0.5-0.5,0.8-0.6c0.3-0.2,0.6-0.4,0.9-0.5
		c0.3-0.1,0.6-0.3,0.9-0.3c0.3-0.1,0.6-0.2,0.8-0.2c0.2-0.1,0.5-0.1,0.7-0.1c0.2,0,0.4,0,0.5,0c0.3,0,0.5,0,0.5,0s-0.2,0-0.5,0.1
		c-0.3,0-0.7,0.1-1.2,0.3c-0.2,0.1-0.5,0.2-0.7,0.3c-0.3,0.1-0.5,0.3-0.8,0.4c-0.3,0.2-0.5,0.3-0.8,0.5c-0.3,0.2-0.5,0.4-0.7,0.6
		c-0.2,0.2-0.5,0.5-0.6,0.7c-0.2,0.2-0.4,0.5-0.5,0.7c-0.1,0.3-0.3,0.5-0.4,0.8c-0.1,0.2-0.2,0.5-0.3,0.7c-0.2,0.5-0.3,0.8-0.3,1.1
		C367.2,633.2,367.2,633.4,367.2,633.4"/>
	<path class="st5" d="M371.3,599.6l-21.7,0.1c-2.1,0-3.8,1.7-3.8,3.7l0,1.9c0,2,1.7,3.7,3.9,3.7h0.1c0,0.4-0.1,0.8-0.1,1.2l0.2,60.3
		c0,5.8,5,10.5,11,10.5c6.1,0,10.9-4.7,10.9-10.5l-0.2-60.3c0-0.4,0-0.8-0.1-1.2c2.1-0.1,3.7-1.7,3.7-3.7l0-1.9
		C375.2,601.3,373.4,599.6,371.3,599.6"/>
	<g>
		<g class="st0">
			<path class="st6" d="M531.2,755.1c0.8,0,1.5-0.2,2.1-0.6c0.6-0.4,1.2-1,1.5-1.8c0.4-0.8,0.6-1.9,0.6-3.1c0-1.2-0.2-2.2-0.6-3
				c-0.4-0.8-0.9-1.5-1.5-1.9c-0.6-0.4-1.3-0.7-2.1-0.7v-3.2c0.7,0.1,1.3,0.3,1.9,0.6c0.9,0.4,1.7,1.1,2.5,2v-6.5
				c0-0.9,0.2-1.6,0.5-2c0.4-0.5,0.9-0.7,1.5-0.7c0.7,0,1.2,0.2,1.5,0.6c0.4,0.4,0.5,1,0.5,1.9V756c0,0.8-0.2,1.5-0.6,1.9
				c-0.4,0.4-0.9,0.6-1.5,0.6c-0.6,0-1.1-0.2-1.5-0.7c-0.4-0.4-0.6-1.1-0.6-1.9v-0.4c-0.6,0.7-1.2,1.2-1.7,1.7
				c-0.6,0.4-1.2,0.7-1.9,1c-0.3,0.1-0.5,0.2-0.8,0.2V755.1z M527,749.5c0,1.2,0.2,2.2,0.6,3c0.4,0.8,0.9,1.5,1.5,1.9
				c0.6,0.4,1.3,0.6,2.1,0.6h0v3.3c-0.4,0.1-0.9,0.1-1.4,0.1c-1.1,0-2-0.2-2.9-0.7c-0.9-0.4-1.7-1.1-2.3-1.9
				c-0.7-0.8-1.2-1.8-1.5-2.9c-0.3-1.1-0.5-2.3-0.5-3.6c0-2.7,0.7-4.9,2-6.4c1.3-1.5,3.1-2.3,5.3-2.3c0.5,0,0.9,0,1.3,0.1v3.2h0
				c-0.8,0-1.5,0.2-2.2,0.7c-0.6,0.5-1.1,1.1-1.5,2C527.2,747.4,527,748.4,527,749.5z"/>
			<path class="st6" d="M551.9,748.1h4c-0.1-1.5-0.5-2.6-1.2-3.4c-0.7-0.7-1.6-1.1-2.8-1.1v-3.1h0.1c1.7,0,3.2,0.4,4.4,1.1
				c1.2,0.7,2.2,1.7,2.8,2.8c0.6,1.1,0.9,2.3,0.9,3.5c0,1.1-0.3,1.8-0.9,2.1c-0.6,0.3-1.5,0.5-2.7,0.5h-4.6V748.1L551.9,748.1z
				 M551.9,758.5v-2.9c0.1,0,0.2,0,0.3,0c0.5,0,1-0.1,1.4-0.2c0.4-0.1,0.9-0.3,1.3-0.6c0.4-0.3,0.8-0.5,1.1-0.8
				c0.3-0.3,0.8-0.7,1.3-1.2c0.2-0.2,0.5-0.3,1-0.3c0.4,0,0.8,0.1,1.1,0.4c0.3,0.2,0.4,0.6,0.4,1c0,0.4-0.2,0.9-0.5,1.4
				c-0.3,0.5-0.8,1-1.4,1.5c-0.6,0.5-1.4,0.9-2.4,1.2c-1,0.3-2,0.5-3.3,0.5C552.2,758.5,552,758.5,551.9,758.5z M547.9,748.1h4v2.5
				h-4c0,1,0.2,1.9,0.6,2.6c0.4,0.8,0.9,1.3,1.6,1.7c0.6,0.3,1.2,0.5,1.8,0.6v2.9c-2.6-0.1-4.6-0.9-6.1-2.4
				c-1.6-1.6-2.4-3.8-2.4-6.5c0-1.3,0.2-2.5,0.6-3.6c0.4-1.1,0.9-2.1,1.7-2.9c0.7-0.8,1.7-1.4,2.7-1.8c1-0.4,2.2-0.6,3.5-0.6v3.1h0
				c-1.1,0-2,0.4-2.7,1.1C548.5,745.6,548,746.7,547.9,748.1z"/>
			<path class="st6" d="M578,752.8c0,1.2-0.3,2.2-0.9,3.1c-0.6,0.9-1.5,1.5-2.6,2c-1.2,0.4-2.6,0.7-4.2,0.7c-1.6,0-2.9-0.2-4.1-0.7
				c-1.1-0.5-2-1.1-2.5-1.8c-0.5-0.7-0.8-1.5-0.8-2.2c0-0.5,0.2-0.9,0.5-1.2c0.3-0.3,0.8-0.5,1.3-0.5c0.5,0,0.8,0.1,1.1,0.3
				c0.2,0.2,0.5,0.5,0.7,0.9c0.4,0.8,1,1.4,1.6,1.8c0.6,0.4,1.5,0.6,2.6,0.6c0.9,0,1.6-0.2,2.2-0.6c0.6-0.4,0.8-0.8,0.8-1.3
				c0-0.8-0.3-1.3-0.9-1.7c-0.6-0.3-1.5-0.7-2.9-1c-1.5-0.4-2.7-0.8-3.7-1.2c-0.9-0.4-1.7-1-2.3-1.6c-0.6-0.7-0.9-1.5-0.9-2.5
				c0-0.9,0.3-1.7,0.8-2.5c0.5-0.8,1.3-1.4,2.3-1.9c1-0.5,2.3-0.7,3.7-0.7c1.1,0,2.2,0.1,3.1,0.4c0.9,0.2,1.7,0.6,2.3,1
				c0.6,0.4,1.1,0.8,1.4,1.3c0.3,0.5,0.5,1,0.5,1.4c0,0.5-0.2,0.9-0.5,1.2c-0.3,0.3-0.8,0.5-1.4,0.5c-0.5,0-0.8-0.1-1.2-0.4
				c-0.3-0.3-0.7-0.6-1.1-1.2c-0.3-0.4-0.7-0.8-1.2-1c-0.5-0.3-1.1-0.4-1.8-0.4c-0.8,0-1.5,0.2-2,0.5c-0.5,0.3-0.8,0.8-0.8,1.3
				c0,0.5,0.2,0.8,0.6,1.1c0.4,0.3,0.9,0.5,1.6,0.7c0.7,0.2,1.6,0.4,2.7,0.7c1.4,0.3,2.5,0.7,3.3,1.2c0.9,0.5,1.5,1,2,1.6
				C577.8,751.2,578,752,578,752.8z"/>
			<path class="st6" d="M586.1,743.1v12.7c0,0.9-0.2,1.5-0.6,2c-0.4,0.5-1,0.7-1.6,0.7c-0.6,0-1.2-0.2-1.6-0.7
				c-0.4-0.5-0.6-1.1-0.6-2v-12.6c0-0.9,0.2-1.5,0.6-2c0.4-0.4,0.9-0.7,1.6-0.7c0.6,0,1.2,0.2,1.6,0.7
				C585.9,741.7,586.1,742.3,586.1,743.1L586.1,743.1z M583.9,738.6c-0.6,0-1.1-0.2-1.6-0.6c-0.4-0.4-0.7-0.9-0.7-1.6
				c0-0.6,0.2-1.1,0.7-1.5c0.4-0.4,1-0.6,1.6-0.6c0.6,0,1.1,0.2,1.5,0.5c0.4,0.4,0.7,0.9,0.7,1.6c0,0.7-0.2,1.2-0.6,1.6
				C585,738.4,584.5,738.6,583.9,738.6z"/>
			<path class="st6" d="M598.3,754.8c0.7,0,1.4-0.2,2-0.6c0.7-0.4,1.2-1,1.6-1.8c0.4-0.8,0.6-1.7,0.6-2.9c0-1.8-0.4-3.2-1.2-4.2
				c-0.8-1-1.8-1.5-3-1.5v-3.1c0.7,0.1,1.3,0.3,1.8,0.6c0.9,0.5,1.8,1.2,2.5,2.2V743c0-0.8,0.2-1.3,0.6-1.8c0.4-0.4,0.9-0.6,1.4-0.6
				c0.8,0,1.4,0.3,1.7,0.8c0.3,0.5,0.4,1.3,0.4,2.4v12.8c0,1.5-0.2,2.7-0.5,3.8c-0.3,1.1-0.8,1.9-1.5,2.6c-0.7,0.7-1.6,1.2-2.7,1.5
				c-1,0.3-2.3,0.5-3.8,0.5V762c1,0,1.7-0.2,2.3-0.5c0.6-0.3,1.1-0.8,1.3-1.3c0.3-0.6,0.4-1.2,0.4-1.8c0-0.6,0.1-1.7,0.1-3.1
				c-0.7,0.9-1.5,1.7-2.4,2.2c-0.5,0.3-1.1,0.5-1.8,0.6V754.8z M594,749.4c0,1.8,0.4,3.1,1.2,4c0.8,0.9,1.8,1.4,3,1.4h0v3.2
				c-0.4,0.1-0.9,0.1-1.4,0.1c-1.5,0-2.8-0.4-3.9-1.1c-1.1-0.7-1.9-1.8-2.5-3.2c-0.6-1.3-0.9-2.9-0.9-4.7c0-1.3,0.2-2.5,0.5-3.6
				c0.4-1.1,0.9-2,1.5-2.7c0.7-0.7,1.4-1.3,2.3-1.7c0.9-0.4,1.8-0.6,2.9-0.6c0.5,0,1,0,1.4,0.1v3.1h-0.1c-1.3,0-2.3,0.5-3,1.4
				C594.4,746.3,594,747.7,594,749.4L594,749.4z M598.3,762v3.1l-0.3,0c-1.5,0-2.9-0.2-4.1-0.6c-1.2-0.4-2.1-1-2.8-1.6
				c-0.6-0.7-1-1.4-1-2.1c0-0.5,0.2-1,0.5-1.3c0.4-0.3,0.8-0.5,1.3-0.5c0.6,0,1.2,0.3,1.7,0.8c0.2,0.3,0.5,0.6,0.7,0.9
				c0.3,0.3,0.5,0.5,0.8,0.8c0.3,0.2,0.7,0.4,1.1,0.5c0.4,0.1,0.9,0.2,1.5,0.2C598,762,598.2,762,598.3,762z"/>
			<path class="st6" d="M615.2,743.1v0.5c0.8-1,1.6-1.8,2.5-2.2c0.9-0.5,2-0.7,3.2-0.7c1.2,0,2.2,0.2,3.1,0.7c0.9,0.5,1.6,1.2,2,2.1
				c0.3,0.5,0.5,1.1,0.6,1.7c0.1,0.6,0.1,1.4,0.1,2.4v8.2c0,0.9-0.2,1.5-0.6,2c-0.4,0.5-0.9,0.7-1.6,0.7c-0.7,0-1.2-0.2-1.6-0.7
				c-0.4-0.5-0.6-1.1-0.6-2v-7.3c0-1.4-0.2-2.6-0.6-3.3c-0.4-0.8-1.2-1.1-2.4-1.1c-0.8,0-1.5,0.2-2.1,0.7c-0.6,0.5-1.1,1.1-1.4,1.9
				c-0.2,0.7-0.3,1.9-0.3,3.7v5.5c0,0.9-0.2,1.6-0.6,2c-0.4,0.4-1,0.7-1.6,0.7c-0.6,0-1.1-0.2-1.6-0.7c-0.4-0.5-0.6-1.1-0.6-2v-12.7
				c0-0.8,0.2-1.5,0.5-1.9c0.4-0.4,0.9-0.6,1.5-0.6c0.4,0,0.7,0.1,1,0.3c0.3,0.2,0.6,0.4,0.7,0.8
				C615.1,742.1,615.2,742.5,615.2,743.1z"/>
			<path class="st6" d="M638.8,748.1h4c-0.1-1.5-0.5-2.6-1.2-3.4c-0.7-0.7-1.6-1.1-2.8-1.1v-3.1h0.1c1.7,0,3.2,0.4,4.4,1.1
				c1.2,0.7,2.1,1.7,2.8,2.8c0.6,1.1,0.9,2.3,0.9,3.5c0,1.1-0.3,1.8-1,2.1c-0.6,0.3-1.5,0.5-2.7,0.5h-4.6V748.1L638.8,748.1z
				 M638.8,758.5v-2.9c0.1,0,0.2,0,0.3,0c0.5,0,1-0.1,1.4-0.2c0.4-0.1,0.9-0.3,1.3-0.6c0.4-0.3,0.8-0.5,1.1-0.8
				c0.3-0.3,0.8-0.7,1.3-1.2c0.2-0.2,0.5-0.3,1-0.3c0.5,0,0.8,0.1,1.1,0.4c0.3,0.2,0.4,0.6,0.4,1c0,0.4-0.2,0.9-0.5,1.4
				c-0.3,0.5-0.8,1-1.4,1.5c-0.6,0.5-1.4,0.9-2.4,1.2c-0.9,0.3-2,0.5-3.3,0.5C639.1,758.5,639,758.5,638.8,758.5z M634.8,748.1h4
				v2.5h-4c0,1,0.2,1.9,0.6,2.6c0.4,0.8,0.9,1.3,1.6,1.7c0.6,0.3,1.2,0.5,1.8,0.6v2.9c-2.6-0.1-4.6-0.9-6.1-2.4
				c-1.6-1.6-2.3-3.8-2.3-6.5c0-1.3,0.2-2.5,0.6-3.6c0.4-1.1,1-2.1,1.7-2.9c0.7-0.8,1.6-1.4,2.7-1.8c1-0.4,2.2-0.6,3.5-0.6v3.1h0
				c-1.1,0-2,0.4-2.7,1.1C635.4,745.6,635,746.7,634.8,748.1z"/>
			<path class="st6" d="M658.3,755.1c0.8,0,1.5-0.2,2.1-0.6c0.6-0.4,1.1-1,1.5-1.8c0.4-0.8,0.6-1.9,0.6-3.1c0-1.2-0.2-2.2-0.6-3
				c-0.4-0.8-0.9-1.5-1.5-1.9c-0.6-0.4-1.3-0.7-2.1-0.7v-3.2c0.7,0.1,1.3,0.3,1.9,0.6c0.9,0.4,1.7,1.1,2.5,2v-6.5
				c0-0.9,0.2-1.6,0.5-2c0.4-0.5,0.9-0.7,1.5-0.7c0.7,0,1.2,0.2,1.5,0.6c0.4,0.4,0.5,1,0.5,1.9V756c0,0.8-0.2,1.5-0.6,1.9
				c-0.4,0.4-0.9,0.6-1.5,0.6c-0.6,0-1.1-0.2-1.5-0.7c-0.4-0.4-0.6-1.1-0.6-1.9v-0.4c-0.6,0.7-1.2,1.2-1.8,1.7
				c-0.6,0.4-1.2,0.7-1.9,1c-0.3,0.1-0.5,0.2-0.8,0.2V755.1z M654.1,749.5c0,1.2,0.2,2.2,0.6,3c0.4,0.8,0.9,1.5,1.5,1.9
				c0.6,0.4,1.4,0.6,2.1,0.6h0v3.3c-0.4,0.1-0.9,0.1-1.4,0.1c-1.1,0-2-0.2-2.9-0.7c-0.9-0.4-1.7-1.1-2.3-1.9
				c-0.7-0.8-1.2-1.8-1.5-2.9c-0.3-1.1-0.5-2.3-0.5-3.6c0-2.7,0.7-4.9,2-6.4c1.3-1.5,3.1-2.3,5.3-2.3c0.5,0,0.9,0,1.3,0.1v3.2h-0.1
				c-0.8,0-1.5,0.2-2.2,0.7c-0.6,0.5-1.1,1.1-1.5,2C654.3,747.4,654.1,748.4,654.1,749.5z"/>
			<path class="st6" d="M688.1,755.1h0.1c1.1,0,2.1-0.5,2.9-1.4c0.8-1,1.2-2.3,1.2-4.1c0-1.2-0.2-2.2-0.5-3
				c-0.3-0.8-0.8-1.5-1.4-1.9c-0.6-0.5-1.3-0.7-2.1-0.7c-0.1,0-0.1,0-0.1,0v-3.2c0.4-0.1,0.8-0.1,1.3-0.1c1.5,0,2.7,0.3,3.8,1
				c1.1,0.7,1.9,1.7,2.6,3c0.6,1.3,0.9,2.9,0.9,4.7c0,1.3-0.2,2.6-0.5,3.7c-0.3,1.1-0.8,2.1-1.5,2.9c-0.6,0.8-1.4,1.5-2.3,1.9
				c-0.9,0.4-1.9,0.7-3,0.7c-0.4,0-0.8,0-1.3-0.1V755.1z M683.9,749.7c0,1.8,0.4,3.1,1.2,4c0.8,0.9,1.8,1.4,3,1.4v3.3
				c-0.2,0-0.4-0.1-0.7-0.1c-0.6-0.2-1.1-0.4-1.5-0.6c-0.4-0.3-0.8-0.5-1.1-0.8c-0.3-0.3-0.7-0.7-1.2-1.3v0.4c0,0.8-0.2,1.5-0.6,1.9
				c-0.4,0.4-0.9,0.6-1.5,0.6c-0.6,0-1.1-0.2-1.5-0.6c-0.4-0.4-0.6-1.1-0.6-1.9v-19.2c0-0.9,0.2-1.6,0.5-2c0.4-0.5,0.9-0.7,1.5-0.7
				c0.7,0,1.2,0.2,1.6,0.7c0.4,0.4,0.5,1.1,0.5,1.9v6.7c0.8-0.9,1.7-1.5,2.5-2c0.6-0.3,1.2-0.5,1.9-0.6v3.2c-0.8,0-1.5,0.2-2.1,0.7
				c-0.7,0.5-1.2,1.1-1.5,2C684,747.5,683.9,748.5,683.9,749.7z"/>
			<path class="st6" d="M703.8,759.1l0.4-1l-5.4-13.6c-0.3-0.8-0.5-1.4-0.5-1.7c0-0.4,0.1-0.7,0.3-1.1c0.2-0.3,0.5-0.6,0.8-0.8
				c0.3-0.2,0.7-0.3,1.1-0.3c0.6,0,1.1,0.2,1.4,0.6c0.3,0.4,0.6,1,0.9,1.7l3.7,10.8l3.5-10.1c0.3-0.8,0.5-1.5,0.8-1.9
				c0.2-0.5,0.5-0.8,0.7-0.9c0.3-0.2,0.6-0.2,1.1-0.2c0.3,0,0.6,0.1,1,0.3c0.3,0.2,0.5,0.4,0.7,0.7c0.2,0.3,0.3,0.6,0.3,0.9
				c0,0.2-0.1,0.5-0.2,0.9c-0.1,0.4-0.2,0.8-0.4,1.2l-5.7,15c-0.5,1.3-1,2.4-1.5,3.1c-0.5,0.8-1.1,1.3-1.9,1.7
				c-0.8,0.4-1.8,0.6-3.1,0.6c-1.3,0-2.3-0.1-2.9-0.4c-0.6-0.3-1-0.8-1-1.5c0-0.5,0.1-0.9,0.5-1.2c0.3-0.3,0.8-0.4,1.4-0.4
				c0.2,0,0.5,0,0.7,0.1c0.3,0.1,0.5,0.1,0.7,0.1c0.5,0,0.9-0.1,1.2-0.2c0.3-0.1,0.6-0.4,0.8-0.8
				C703.3,760.3,703.5,759.8,703.8,759.1z"/>
			<path class="st6" d="M785.2,741h1v-1.3c0-1.4,0.2-2.5,0.5-3.3c0.3-0.8,0.9-1.4,1.8-1.8c0.8-0.4,2-0.6,3.4-0.6
				c2.6,0,3.8,0.6,3.8,1.9c0,0.4-0.1,0.8-0.4,1.1c-0.3,0.3-0.6,0.4-0.9,0.4c-0.2,0-0.5,0-0.9-0.1c-0.4-0.1-0.8-0.1-1.1-0.1
				c-0.8,0-1.3,0.2-1.5,0.7c-0.2,0.5-0.3,1.1-0.3,2v1h1.1c1.7,0,2.5,0.5,2.5,1.5c0,0.7-0.2,1.2-0.7,1.4c-0.4,0.2-1.1,0.3-1.8,0.3
				h-1.1v11.6c0,0.9-0.2,1.5-0.6,2c-0.4,0.5-0.9,0.7-1.6,0.7c-0.6,0-1.1-0.2-1.5-0.7c-0.4-0.5-0.6-1.1-0.6-2v-11.6H785
				c-0.7,0-1.2-0.2-1.5-0.5c-0.4-0.3-0.5-0.7-0.5-1.1C783,741.5,783.7,741,785.2,741z"/>
			<path class="st6" d="M800.9,752.2v3.7c0,0.9-0.2,1.6-0.6,2c-0.4,0.4-0.9,0.7-1.6,0.7c-0.6,0-1.2-0.2-1.6-0.7
				c-0.4-0.5-0.6-1.1-0.6-2v-12.2c0-2,0.7-3,2.1-3c0.7,0,1.3,0.2,1.6,0.7c0.3,0.5,0.5,1.1,0.5,2c0.5-0.9,1.1-1.6,1.6-2
				c0.6-0.5,1.3-0.7,2.2-0.7c0.9,0,1.8,0.2,2.7,0.7c0.9,0.5,1.3,1.1,1.3,1.8c0,0.5-0.2,1-0.6,1.3c-0.4,0.3-0.8,0.5-1.2,0.5
				c-0.2,0-0.6-0.1-1.2-0.3c-0.6-0.2-1.2-0.3-1.6-0.3c-0.6,0-1.2,0.2-1.6,0.5c-0.4,0.3-0.7,0.8-1,1.5c-0.2,0.7-0.4,1.5-0.5,2.4
				C800.9,749.7,800.9,750.8,800.9,752.2z"/>
			<path class="st6" d="M817.8,748.1h4c-0.1-1.5-0.5-2.6-1.2-3.4c-0.7-0.7-1.6-1.1-2.8-1.1v-3.1h0.1c1.7,0,3.2,0.4,4.4,1.1
				c1.2,0.7,2.2,1.7,2.8,2.8c0.6,1.1,0.9,2.3,0.9,3.5c0,1.1-0.3,1.8-1,2.1c-0.6,0.3-1.5,0.5-2.7,0.5h-4.6V748.1L817.8,748.1z
				 M817.8,758.5v-2.9c0.1,0,0.2,0,0.3,0c0.5,0,1-0.1,1.4-0.2c0.4-0.1,0.9-0.3,1.3-0.6c0.4-0.3,0.8-0.5,1.1-0.8
				c0.3-0.3,0.8-0.7,1.3-1.2c0.2-0.2,0.6-0.3,1-0.3c0.4,0,0.8,0.1,1.1,0.4c0.3,0.2,0.4,0.6,0.4,1c0,0.4-0.2,0.9-0.5,1.4
				c-0.3,0.5-0.8,1-1.4,1.5c-0.6,0.5-1.4,0.9-2.4,1.2c-1,0.3-2,0.5-3.3,0.5C818.1,758.5,817.9,758.5,817.8,758.5z M813.8,748.1h4
				v2.5h-4c0,1,0.2,1.9,0.6,2.6c0.4,0.8,0.9,1.3,1.6,1.7c0.6,0.3,1.2,0.5,1.8,0.6v2.9c-2.6-0.1-4.7-0.9-6.1-2.4
				c-1.6-1.6-2.4-3.8-2.4-6.5c0-1.3,0.2-2.5,0.6-3.6c0.4-1.1,0.9-2.1,1.7-2.9c0.7-0.8,1.7-1.4,2.7-1.8c1-0.4,2.2-0.6,3.5-0.6v3.1h0
				c-1.1,0-2,0.4-2.7,1.1C814.4,745.6,813.9,746.7,813.8,748.1z"/>
			<path class="st6" d="M837.4,748.1h4c-0.1-1.5-0.5-2.6-1.2-3.4c-0.7-0.7-1.6-1.1-2.8-1.1v-3.1h0.1c1.7,0,3.2,0.4,4.4,1.1
				c1.2,0.7,2.2,1.7,2.8,2.8c0.6,1.1,0.9,2.3,0.9,3.5c0,1.1-0.3,1.8-0.9,2.1c-0.6,0.3-1.5,0.5-2.7,0.5h-4.6V748.1L837.4,748.1z
				 M837.4,758.5v-2.9c0.1,0,0.2,0,0.3,0c0.5,0,1-0.1,1.4-0.2c0.4-0.1,0.9-0.3,1.3-0.6c0.4-0.3,0.8-0.5,1.1-0.8
				c0.3-0.3,0.8-0.7,1.3-1.2c0.2-0.2,0.5-0.3,1-0.3c0.5,0,0.8,0.1,1.1,0.4c0.3,0.2,0.4,0.6,0.4,1c0,0.4-0.2,0.9-0.5,1.4
				c-0.3,0.5-0.8,1-1.4,1.5c-0.6,0.5-1.4,0.9-2.4,1.2c-1,0.3-2,0.5-3.3,0.5C837.7,758.5,837.5,758.5,837.4,758.5z M833.4,748.1h4
				v2.5h-4c0,1,0.2,1.9,0.6,2.6c0.4,0.8,0.9,1.3,1.6,1.7c0.6,0.3,1.2,0.5,1.8,0.6v2.9c-2.6-0.1-4.6-0.9-6.1-2.4
				c-1.6-1.6-2.4-3.8-2.4-6.5c0-1.3,0.2-2.5,0.6-3.6c0.4-1.1,1-2.1,1.7-2.9c0.7-0.8,1.6-1.4,2.7-1.8c1-0.4,2.2-0.6,3.5-0.6v3.1h0
				c-1.1,0-2,0.4-2.7,1.1C834,745.6,833.5,746.7,833.4,748.1z"/>
			<path class="st6" d="M861.5,749.5c0-1.2-0.2-2.2-0.5-3c-0.4-0.8-0.8-1.5-1.5-1.9c-0.6-0.5-1.3-0.7-2.1-0.7l-0.1,0v-3.2
				c0.4-0.1,0.8-0.1,1.2-0.1c1.4,0,2.6,0.3,3.7,1c1.1,0.7,2,1.7,2.7,3.1c0.6,1.3,1,2.9,1,4.8c0,1.3-0.2,2.6-0.6,3.7
				c-0.4,1.1-0.9,2.1-1.6,2.8c-0.7,0.8-1.5,1.4-2.3,1.8c-0.9,0.4-1.9,0.6-2.9,0.6c-0.4,0-0.8,0-1.2-0.1v-3.3h0.1
				c0.7,0,1.4-0.2,2-0.6c0.6-0.4,1.1-1,1.5-1.9C861.3,751.7,861.5,750.7,861.5,749.5z M857.3,743.9c-1.2,0-2.1,0.5-2.9,1.4
				c-0.8,1-1.3,2.4-1.3,4.2c0,1.7,0.4,3.1,1.2,4.1c0.8,0.9,1.8,1.4,3,1.5v3.3c-0.7-0.1-1.4-0.3-2-0.7c-0.9-0.5-1.7-1.2-2.4-2.2v6.6
				c0,1.9-0.7,2.9-2.1,2.9c-0.8,0-1.4-0.3-1.7-0.8c-0.3-0.5-0.4-1.2-0.4-2.2v-19c0-0.8,0.2-1.5,0.5-1.9c0.4-0.4,0.9-0.6,1.5-0.6
				c0.6,0,1.1,0.2,1.5,0.6c0.4,0.4,0.6,1,0.6,1.8v0.5c0.8-1,1.7-1.8,2.6-2.2c0.6-0.3,1.2-0.5,1.8-0.6V743.9z"/>
			<path class="st6" d="M873.9,743.1v12.7c0,0.9-0.2,1.5-0.6,2c-0.4,0.5-0.9,0.7-1.6,0.7c-0.6,0-1.2-0.2-1.6-0.7
				c-0.4-0.5-0.6-1.1-0.6-2v-12.6c0-0.9,0.2-1.5,0.6-2c0.4-0.4,0.9-0.7,1.6-0.7c0.6,0,1.2,0.2,1.6,0.7
				C873.7,741.7,873.9,742.3,873.9,743.1L873.9,743.1z M871.7,738.6c-0.6,0-1.2-0.2-1.6-0.6c-0.4-0.4-0.6-0.9-0.6-1.6
				c0-0.6,0.2-1.1,0.7-1.5c0.4-0.4,1-0.6,1.6-0.6c0.6,0,1.1,0.2,1.5,0.5c0.4,0.4,0.7,0.9,0.7,1.6c0,0.7-0.2,1.2-0.6,1.6
				C872.8,738.4,872.3,738.6,871.7,738.6z"/>
			<path class="st6" d="M889.4,756.5l-3.9-6.4l-2.4,2.3v3.5c0,0.8-0.2,1.5-0.6,2c-0.5,0.5-1,0.7-1.5,0.7c-0.7,0-1.2-0.2-1.6-0.7
				c-0.4-0.5-0.6-1.1-0.6-2v-18.7c0-1,0.2-1.7,0.6-2.2c0.4-0.5,0.9-0.8,1.6-0.8c0.7,0,1.2,0.2,1.6,0.7c0.4,0.5,0.6,1.1,0.6,2v10.7
				l5-5.2c0.6-0.6,1.1-1.1,1.4-1.3c0.3-0.2,0.7-0.4,1.2-0.4c0.6,0,1,0.2,1.4,0.5c0.4,0.4,0.5,0.8,0.5,1.3c0,0.6-0.6,1.5-1.8,2.6
				l-2.3,2.1l4.5,7.1c0.3,0.5,0.6,0.9,0.7,1.2c0.2,0.3,0.2,0.5,0.2,0.8c0,0.7-0.2,1.2-0.6,1.7c-0.4,0.4-0.9,0.6-1.5,0.6
				c-0.5,0-1-0.1-1.2-0.4C890.3,757.8,889.9,757.3,889.4,756.5z"/>
			<path class="st6" d="M900.2,758.5c-0.7,0-1.2-0.2-1.7-0.7c-0.5-0.4-0.7-1-0.7-1.8c0-0.7,0.2-1.2,0.7-1.7c0.5-0.5,1-0.7,1.7-0.7
				c0.7,0,1.3,0.2,1.7,0.7c0.5,0.5,0.7,1,0.7,1.7c0,0.8-0.2,1.4-0.7,1.8C901.4,758.3,900.9,758.5,900.2,758.5z"/>
			<path class="st6" d="M923.4,753.1c0,0.5-0.2,1.1-0.5,1.8c-0.3,0.6-0.8,1.2-1.5,1.8c-0.7,0.6-1.5,1-2.5,1.4
				c-1,0.3-2.2,0.5-3.4,0.5c-2.7,0-4.8-0.8-6.4-2.4c-1.5-1.6-2.3-3.7-2.3-6.4c0-1.8,0.4-3.4,1.1-4.8c0.7-1.4,1.7-2.4,3-3.2
				c1.3-0.8,2.9-1.1,4.7-1.1c1.1,0,2.2,0.2,3.1,0.5c1,0.3,1.8,0.8,2.4,1.3c0.7,0.5,1.2,1.1,1.5,1.7c0.3,0.6,0.5,1.2,0.5,1.7
				c0,0.5-0.2,1-0.6,1.3c-0.4,0.4-0.9,0.5-1.4,0.5c-0.4,0-0.7-0.1-0.9-0.3c-0.2-0.2-0.5-0.5-0.8-0.9c-0.5-0.8-1.1-1.4-1.7-1.8
				c-0.6-0.4-1.3-0.6-2.2-0.6c-1.3,0-2.3,0.5-3.1,1.5c-0.8,1-1.2,2.4-1.2,4.2c0,0.8,0.1,1.6,0.3,2.3c0.2,0.7,0.5,1.3,0.9,1.8
				c0.4,0.5,0.9,0.9,1.4,1.1c0.5,0.3,1.2,0.4,1.8,0.4c0.9,0,1.6-0.2,2.3-0.6c0.6-0.4,1.2-1,1.7-1.9c0.3-0.5,0.6-0.9,0.9-1.2
				c0.3-0.3,0.7-0.4,1.1-0.4c0.5,0,1,0.2,1.3,0.6C923.2,752.2,923.4,752.6,923.4,753.1z"/>
			<path class="st6" d="M939.3,749.6c0-1.8-0.4-3.2-1.2-4.2c-0.8-1-1.8-1.5-3.1-1.5v-3.2c1.3,0,2.5,0.2,3.6,0.6c1.1,0.4,2,1,2.8,1.8
				c0.8,0.8,1.4,1.7,1.8,2.8c0.4,1.1,0.6,2.3,0.6,3.6c0,1.3-0.2,2.5-0.6,3.6c-0.4,1.1-1,2.1-1.8,2.9c-0.8,0.8-1.7,1.4-2.8,1.8
				c-1.1,0.4-2.3,0.6-3.6,0.6v-3.3c1.3,0,2.4-0.5,3.1-1.5C938.9,752.7,939.3,751.3,939.3,749.6z M934.9,743.9L934.9,743.9
				c-0.9,0-1.6,0.2-2.3,0.7c-0.6,0.5-1.2,1.1-1.5,2c-0.3,0.9-0.5,1.9-0.5,3.1c0,1.2,0.2,2.2,0.5,3c0.3,0.9,0.8,1.5,1.5,2
				c0.7,0.5,1.4,0.7,2.3,0.7h0v3.3h0c-1.3,0-2.5-0.2-3.6-0.7c-1.1-0.4-2-1-2.8-1.8c-0.8-0.8-1.4-1.7-1.8-2.8
				c-0.4-1.1-0.6-2.3-0.6-3.6c0-1.3,0.2-2.6,0.6-3.7c0.4-1.1,1-2.1,1.7-2.8c0.8-0.8,1.7-1.4,2.8-1.8c1.1-0.4,2.3-0.6,3.6-0.6h0
				V743.9z"/>
			<path class="st6" d="M961.8,749.9v5.8c0,0.9-0.2,1.6-0.6,2.1c-0.4,0.5-1,0.7-1.7,0.7c-0.7,0-1.2-0.2-1.6-0.7
				c-0.4-0.5-0.6-1.2-0.6-2.1v-7c0-1.1,0-2-0.1-2.6c-0.1-0.6-0.3-1.1-0.6-1.5c-0.3-0.4-0.9-0.6-1.6-0.6c-1.4,0-2.4,0.5-2.8,1.5
				c-0.5,1-0.7,2.4-0.7,4.2v5.9c0,0.9-0.2,1.6-0.6,2.1c-0.4,0.5-1,0.7-1.6,0.7c-0.7,0-1.2-0.2-1.6-0.7c-0.4-0.5-0.6-1.2-0.6-2.1
				v-12.6c0-0.8,0.2-1.4,0.6-1.9c0.4-0.4,0.9-0.6,1.5-0.6c0.6,0,1.1,0.2,1.5,0.6c0.4,0.4,0.6,1,0.6,1.7v0.4c0.8-0.9,1.6-1.6,2.5-2
				c0.9-0.4,1.8-0.6,2.9-0.6c1.1,0,2.1,0.2,2.9,0.7c0.8,0.4,1.5,1.1,2,2c0.7-0.9,1.5-1.6,2.4-2c0.8-0.4,1.8-0.7,2.8-0.7
				c1.2,0,2.2,0.2,3.1,0.7c0.9,0.5,1.5,1.2,1.9,2c0.4,0.8,0.6,2.1,0.6,3.8v8.6c0,0.9-0.2,1.6-0.6,2.1c-0.4,0.5-1,0.7-1.7,0.7
				c-0.7,0-1.2-0.2-1.6-0.7c-0.4-0.5-0.6-1.2-0.6-2.1v-7.4c0-0.9,0-1.7-0.1-2.3c-0.1-0.6-0.3-1-0.7-1.4c-0.4-0.4-0.9-0.6-1.6-0.6
				c-0.6,0-1.1,0.2-1.7,0.5c-0.5,0.3-0.9,0.8-1.2,1.4C961.9,746.7,961.8,748,961.8,749.9z"/>
			<path class="st6" d="M750.5,729.3c-0.1-0.3-0.2-0.6-0.3-0.8c1.5-0.1,2.5-1.9,1.7-3.2c-0.3-0.8-1.2-1.2-2-1.2h-0.1
				c-0.7,0-1.4,0.3-1.7,0.9c-0.9,1.2-0.2,3.1,1.2,3.5c0.1,0.3,0.2,0.6,0.3,0.9c-2.2,0.1-4.5,0.6-6.3,1.9c0.2,0.5,0.4,1.1,0.6,1.6
				c3.7-1.6,7.9-1.3,11.9-0.9c0.1-0.5,0.3-1,0.4-1.6C754.4,729.6,752.5,729.3,750.5,729.3z"/>
			<path class="st6" d="M772.8,735.3c-0.6,0.3-0.7,1-0.7,1.6c-0.7,0.6-0.3,1.6-0.4,2.4c-0.1,0.5-0.7,0.5-1.1,0.7
				c-0.5-0.8-1.1-1.5-1.8-2.2l0,0c-0.8-0.7-1.6-1.4-2.4-1.9c-0.7,0.7-1.4,1.5-2.1,2.2c1.3,1.4,2.5,3,3.6,4.6
				c0.7,1.2,1.3,2.6,1.9,3.9c1.1-0.6,2.2-1.2,3.3-1.8c-0.6-1.4-1.3-2.7-2-4c0.5-0.3,1.2-0.5,1.2-1.2c0.1-0.7-0.1-1.5,0.3-2.1
				c0.9,0.6,2.2-0.1,2.2-1.1C775.1,735.5,773.7,734.7,772.8,735.3z"/>
			<path class="st6" d="M764.1,744.4c-0.3,1.8-2,3.3-3.8,3.2v7.3c3.4-0.9,6.7-2.3,9.7-4c0,0-0.6-3.5-3.2-7.4c-1.5-2.4-3-4.8-5.2-6.7
				c-0.4-0.4-0.9-0.8-1.4-1.1v4.2c0.5,0,0.9,0.1,1.4,0.2C763.3,740.7,764.4,742.6,764.1,744.4z M760.2,747.6L760.2,747.6
				c-1.1,0.1-2.1-0.4-2.8-1.2c-0.5-0.7-1-1.4-1-2.2c-0.3-1.8,1-3.7,2.8-4.2c0.3-0.1,0.7-0.1,1-0.1v-4.2c-2.2-1.6-4.9-2.5-7.6-2.5
				c-3.4,0-6.8,0.4-10,1.4v4c0.6,0,1.2,0.1,1.8,0.2c0.6,0.2,1.2,0.5,1.8,0.8c1.1,0.8,2,2,2.4,3.4c0.5,1.7,0.2,3.7-0.8,5.2
				c-0.7,1.1-1.8,1.9-3,2.3c-0.7,0.3-1.4,0.4-2.1,0.4v5.4l0.2,0c3.9,0.1,7.9,0.2,11.8-0.3c1.9-0.3,3.8-0.6,5.6-1.1V747.6z
				 M742.7,734.6v4c-1,0-2,0.2-2.9,0.7c-1.9,1-3.2,3-3.2,5.1c-0.1,1.7,0.6,3.4,1.7,4.6c1.1,1.3,2.8,1.9,4.5,1.9v5.4
				c-3.9-0.2-7.8-1-11.6-2c-0.7-3.5-0.7-7.3,0.8-10.7c1.6-3.7,4.8-6.5,8.4-8.1C741.1,735.1,741.9,734.8,742.7,734.6z"/>
			<path class="st6" d="M731.9,738.1c-1.6,0.9-2.9,2.3-3.9,3.7c-0.3-0.6-0.4-1.3-0.8-1.8c-0.2-0.3-0.7-0.2-1-0.2
				c-0.4,0-0.8-0.1-1.2-0.2c0.5-0.6,0.3-1.6-0.4-2.1c-0.8-0.5-1.9-0.1-2.1,0.8c-0.3,1,0.7,2,1.7,1.7c0.5,0.8,1.4,0.6,2.2,0.7
				c0.4,0.6,0.6,1.3,1.1,1.8c-0.8,1.7-1.3,3.5-1.4,5.4c1.1,0.4,2.2,0.9,3.2,1.4c0.1-1.2,0.2-2.3,0.4-3.5c0.4-2.5,1.8-4.7,3.6-6.5
				C732.9,738.9,732.4,738.5,731.9,738.1z"/>
			<path class="st6" d="M757.2,757.1c-4,0.9-8.1,1.1-12.2,0.9c-2.8-0.1-5.5-0.4-8.2-1c-1.9-0.4-3.8-0.9-5.6-1.5
				c0.3,2.4,1.3,4.7,2.7,6.7c1.6,2.3,3.8,4.4,6.5,5.3c2,0.5,4.3,1.2,8.2,1.2h0.4l0.4,0c3.6-0.1,7.1-0.5,10.3-1.9
				c2-0.9,3.9-2.1,5.6-3.6c1.4-1.3,2.5-3,3.3-4.8c0.7-1.7,1.4-4.7,1.3-6.3C766,754.4,761.6,756.3,757.2,757.1z"/>
		</g>
		<g>
			<g class="st0">
				<linearGradient id="SVGID_1_" gradientUnits="userSpaceOnUse" x1="473.8461" y1="284.3749" x2="1428.3168" y2="284.3749">
					<stop  offset="0" style="stop-color:#1D1D1B"/>
					<stop  offset="8.962709e-02" style="stop-color:#1D1D1B;stop-opacity:0.9104"/>
					<stop  offset="1" style="stop-color:#1D1D1B;stop-opacity:0"/>
				</linearGradient>
				<path class="st7" d="M1010.9-131.4c-1.4-1.4-2.9-2.8-4.5-4l-0.1-0.1l0,0c-29.1-22.5-88.7-20.2-160.5,3.1
					c-22.2-74.1-57.1-121.8-96.3-121.8c-39.2,0-74.1,47.7-96.3,121.8c-82.4-26.7-148.7-25.8-171.3,8.5c-6,9.1-8.5,19.9-8,32.1
					c-1.8,37,28,88.2,79.8,140.8c-51.7,52.6-81.5,103.8-79.8,140.8c-0.5,12.2,2,23.1,8,32.1c4.9,7.5,11.9,13.3,20.7,17.7L1183.3,822
					l245,1V165.3L1010.9-131.4z"/>
				<g class="st8">
					<g>
						<g>
							<g class="st9">
								<g>
									<path d="M749.5,385.5c-34.8,0-67-33.7-90.8-94.9c-23.2-59.6-36-138.8-36-222.9c0-84.1,12.8-163.3,36-222.9
										c23.8-61.2,56.1-94.9,90.8-94.9s67,33.7,90.8,94.9c23.2,59.6,36,138.8,36,222.9c0,84.1-12.8,163.3-36,222.9
										C816.6,351.8,784.3,385.5,749.5,385.5z M749.5-239.6c-29.7,0-59.3,32.1-81.1,88.2c-22.7,58.4-35.2,136.2-35.2,219.1
										c0,82.8,12.5,160.6,35.2,219.1c21.8,56,51.3,88.2,81.1,88.2c29.7,0,59.3-32.1,81.1-88.2c22.7-58.4,35.2-136.2,35.2-219.1
										c0-82.8-12.5-160.6-35.2-219.1C808.8-207.4,779.2-239.6,749.5-239.6z"/>
								</g>
							</g>
							<g>
								<g>
									<path class="st10" d="M749.5,379.2c-34.8,0-67-33.7-90.8-94.9c-23.2-59.6-36-138.8-36-222.9s12.8-163.3,36-222.9
										c23.8-61.2,56.1-94.9,90.8-94.9s67,33.7,90.8,94.9c23.2,59.6,36,138.8,36,222.9s-12.8,163.3-36,222.9
										C816.6,345.5,784.3,379.2,749.5,379.2z M749.5-245.8c-29.7,0-59.3,32.1-81.1,88.2c-22.7,58.4-35.2,136.2-35.2,219.1
										c0,82.8,12.5,160.6,35.2,219.1c21.8,56,51.3,88.2,81.1,88.2c29.7,0,59.3-32.1,81.1-88.2c22.7-58.4,35.2-136.2,35.2-219.1
										c0-82.8-12.5-160.6-35.2-219.1C808.8-213.7,779.2-245.8,749.5-245.8z"/>
								</g>
							</g>
						</g>
						<g>
							<g>
								<g class="st9">
									<g>
										<path d="M946.8,256c-68.7,0-170.3-37.4-265.2-97.6C625.9,123,576.7,82.8,539.1,42c-36.9-40.1-60-77.9-66.8-109.4
											c-4.2-19.5-1.9-36,6.6-49c12.5-18.9,37.8-28.9,73.2-28.9c68.7,0,170.3,37.4,265.2,97.6c55.7,35.3,105,75.6,142.5,116.3
											c36.9,40.1,60,77.9,66.8,109.4c4.2,19.5,1.9,36-6.6,49C1007.6,246,982.3,256,946.8,256z M552.2-138.3
											c-33,0-56.3,8.9-67.4,25.7c-7.5,11.4-9.4,26.1-5.6,43.6c13.4,62.6,96.3,151.6,206.2,221.3c93.8,59.6,194,96.5,261.5,96.5
											c33,0,56.3-8.9,67.4-25.7c7.5-11.4,9.4-26.1,5.6-43.6C1006.5,117,923.6,28,813.7-41.7
											C719.9-101.3,619.7-138.3,552.2-138.3z"/>
									</g>
								</g>
								<g>
									<g>
										<path class="st10" d="M946.8,249.7c-68.7,0-170.3-37.4-265.2-97.6c-55.7-35.3-105-75.6-142.5-116.3
											c-36.9-40.1-60-77.9-66.8-109.4c-4.2-19.5-1.9-36,6.6-49c12.5-18.9,37.8-28.9,73.2-28.9c68.7,0,170.3,37.4,265.2,97.6
											c55.7,35.3,105,75.6,142.5,116.3c36.9,40.1,60,77.9,66.8,109.4c4.2,19.5,1.9,36-6.6,49
											C1007.6,239.7,982.3,249.7,946.8,249.7z M552.2-144.5c-33,0-56.3,8.9-67.4,25.7c-7.5,11.4-9.4,26.1-5.6,43.6
											c13.4,62.6,96.3,151.6,206.2,221.3c93.8,59.6,194,96.5,261.5,96.5c33,0,56.3-8.9,67.4-25.7c7.5-11.4,9.4-26.1,5.6-43.6
											C1006.5,110.7,923.6,21.7,813.7-48C719.9-107.6,619.7-144.5,552.2-144.5z"/>
									</g>
								</g>
							</g>
						</g>
						<g>
							<g>
								<g class="st9">
									<g>
										<path d="M552.3,256C552.2,256,552.3,256,552.3,256c-35.5,0-60.8-10-73.3-28.9c-8.6-13-10.8-29.5-6.6-49
											c6.7-31.5,29.8-69.3,66.8-109.4c37.5-40.8,86.8-81,142.5-116.3c94.9-60.2,196.5-97.6,265.2-97.6c35.5,0,60.8,10,73.2,28.9
											c8.6,13,10.8,29.5,6.6,49C1020-35.9,996.9,1.9,960,42c-37.5,40.8-86.8,81-142.5,116.3C722.5,218.5,620.9,256,552.3,256z
											 M946.8-138.3c-67.4,0-167.6,37-261.5,96.5C575.5,28,492.6,117,479.2,179.6c-3.8,17.6-1.9,32.3,5.6,43.6
											c11.1,16.8,34.4,25.7,67.4,25.7c0,0,0,0,0,0c67.4,0,167.6-37,261.4-96.5C923.6,82.7,1006.5-6.2,1019.9-68.9
											c3.8-17.6,1.9-32.3-5.6-43.6C1003.1-129.4,979.8-138.3,946.8-138.3z"/>
									</g>
								</g>
								<g>
									<g>
										<path class="st10" d="M552.3,249.7C552.3,249.7,552.3,249.7,552.3,249.7c-35.5,0-60.8-10-73.3-28.9
											c-8.6-13-10.8-29.5-6.6-49c6.7-31.5,29.8-69.3,66.8-109.4c37.5-40.8,86.8-81,142.5-116.3c94.9-60.2,196.5-97.6,265.2-97.6
											c35.5,0,60.8,10,73.2,28.9c8.6,13,10.8,29.5,6.6,49C1020-42.2,996.9-4.4,960,35.7c-37.5,40.8-86.8,81-142.5,116.3
											C722.5,212.3,620.9,249.7,552.3,249.7z M946.8-144.5c-67.4,0-167.6,37-261.5,96.5C575.5,21.7,492.6,110.7,479.2,173.3
											c-3.8,17.6-1.9,32.3,5.6,43.6c11.1,16.8,34.4,25.7,67.4,25.7c0,0,0,0,0,0c67.4,0,167.6-37,261.4-96.5
											c109.9-69.7,192.8-158.7,206.2-221.3c3.8-17.6,1.9-32.3-5.6-43.6C1003.1-135.7,979.8-144.5,946.8-144.5z"/>
									</g>
								</g>
							</g>
						</g>
					</g>
					<g>
						<g>
							<g class="st9">
								<ellipse cx="757.7" cy="44.8" rx="51.8" ry="50.8"/>
							</g>
							<g>
								<ellipse class="st11" cx="749.6" cy="38.5" rx="51.8" ry="50.8"/>
							</g>
						</g>
						<g>
							<g class="st9">
								<path d="M995-36.4c0-10.5,8.7-19.1,19.4-19.1c10.7,0,19.5,8.5,19.5,19.1c0,10.5-8.7,19.1-19.5,19.1
									C1003.7-17.4,995-25.9,995-36.4z"/>
							</g>
							<g>
								<ellipse class="st12" cx="1006.3" cy="-42.7" rx="19.5" ry="19.1"/>
							</g>
						</g>
						<g>
							<g class="st9">
								<path d="M888.6,238.5c0-9.4,8.1-17.1,18.2-17.1c10,0,18.2,7.6,18.2,17.1c0,9.4-8.1,17.1-18.2,17.1
									C896.7,255.5,888.6,247.9,888.6,238.5z"/>
							</g>
							<g>
								<ellipse class="st13" cx="910.3" cy="235.4" rx="18.2" ry="17.1"/>
							</g>
						</g>
						<g>
							<g class="st9">
								<ellipse cx="757.7" cy="-249.5" rx="31.2" ry="30.6"/>
							</g>
							<g>
								<ellipse class="st14" cx="749.5" cy="-255.8" rx="31.2" ry="30.6"/>
							</g>
						</g>
					</g>
				</g>
			</g>
			<g>
				<g class="st0">
					<linearGradient id="SVGID_2_" gradientUnits="userSpaceOnUse" x1="996.2861" y1="-170.684" x2="1412.3341" y2="-170.684">
						<stop  offset="0" style="stop-color:#1D1D1B"/>
						<stop  offset="8.962709e-02" style="stop-color:#1D1D1B;stop-opacity:0.9104"/>
						<stop  offset="1" style="stop-color:#1D1D1B;stop-opacity:0"/>
					</linearGradient>
					<polyline class="st15" points="996.3,-235.9 1401.9,38.5 1412.3,-189.2 1141.5,-379.9 					"/>
					<g class="st8">
						<g>
							<g>
								<g class="st9">
									<path d="M989.9-282.7c-14.1-6.2-16.6-29.5-2.3-33.2l0,0c-12.9-4.4-7.2-33.5,4.7-32c-1.2-11.9,1-26.2,19.5-27.7
										c-0.5-14.8,18.7-23.7,30.7-15.2c0.5-6.7,5.1-11.9,5.1-11.9c6.1-5.5,27-6.2,27,5.5V-234c-5.5,8.6-6.6,15.4-17.1,19.7
										c-8.3,3.1-21.5,4.9-29.2,0c0,0-10.9-11.7-9.9-15.6c-3.3,3.7-11.3,2.4-14.6-0.7c-9.4-8-5.2-22.5-5.2-22.5s-7.7-4.3-9.4-7.4
										c-2.8-3.7-3.3-6.2-3.3-10.5C986-275.3,988.8-279,989.9-282.7z"/>
								</g>
								<g>
									<g>
										<g>
											<path class="st16" d="M983.8-287.6c-14.1-6.2-16.6-29.5-2.3-33.2l0,0c-12.9-4.4-7.2-33.5,4.7-32
												c-1.2-11.9,1-26.2,19.5-27.7c-0.5-14.8,18.7-23.7,30.7-15.2c0.5-6.7,5.1-11.9,5.1-11.9c6.1-5.5,27-6.2,27,5.5V-239
												c-5.5,8.6-6.6,15.4-17.1,19.7c-8.3,3.1-21.5,4.9-29.2,0c0,0-10.9-11.7-9.9-15.6c-3.3,3.7-11.3,2.4-14.6-0.7
												c-9.4-8-5.2-22.5-5.2-22.5s-7.7-4.3-9.4-7.4c-2.8-3.7-3.3-6.2-3.3-10.5C979.8-280.2,982.7-283.9,983.8-287.6z"/>
										</g>
									</g>
								</g>
							</g>
							<g>
								<g>
									<path class="st10" d="M1068.6-236.6c-0.9,0-1.7-0.8-1.7-1.7v-163.1c0-2.8-1.5-4.9-4.5-6.3c-6.2-2.7-16.1-1.2-19.6,2
										c-5.4,5.1-5.3,12.5-3.3,17.7c2.3,6.2,7.3,10.5,12.7,10.7c0.9,0,1.7,0.8,1.6,1.8c0,0.9-0.9,1.6-1.8,1.6
										c-6.8-0.3-13-5.4-15.8-12.9c-3-7.9-1.3-16.1,4.2-21.4c4.8-4.4,16.3-5.7,23.3-2.6c4.2,1.9,6.6,5.2,6.6,9.4v163.1
										C1070.3-237.4,1069.6-236.6,1068.6-236.6z"/>
								</g>
								<g>
									<path class="st10" d="M1012-320.6c-1.7,0-3.5-0.2-5.3-0.7c-9.6-2.7-18.7-12.4-21.2-19.8c-4.1-12.4-2.6-25.9,3.5-33.6
										c3.7-4.7,8.9-7,15.1-6.9c0.4-6.4,4.3-12.2,10.7-15.6c7.4-4,16.3-3.7,22.7,0.8c0.8,0.5,0.9,1.6,0.4,2.4
										c-0.5,0.8-1.6,0.9-2.4,0.4c-5.3-3.8-12.8-4-19.1-0.6c-5.8,3.1-9.1,8.5-8.9,14.3c0,0.5-0.2,1-0.5,1.3
										c-0.4,0.3-0.9,0.5-1.3,0.5c-5.9-0.6-10.6,1.3-14,5.5c-5.5,6.9-6.7,19.1-3,30.4c1.8,5.6,9.6,15.1,18.8,17.6
										c5.3,1.5,10.1,0.4,14.2-3.2c0.7-0.6,1.8-0.5,2.4,0.2c0.6,0.7,0.5,1.8-0.2,2.4C1020.5-322.2,1016.4-320.6,1012-320.6z"/>
								</g>
								<g>
									<path class="st10" d="M1028.8-279.1c-2.5,0-4.9-0.3-7.2-0.8c-5.1-1.2-8.7-3.7-10.4-7c-2,2.1-4.7,3.5-7.9,4.4
										c-8.7,2.2-19.3-0.6-24.8-4.3c-6.4-4.1-10.1-13.4-8.7-21.9c0.9-5.4,3.7-9.6,8-11.8c-4.3-3.4-6.7-9.3-6.2-16.1
										c0.5-7,4.3-15,11.9-17.2c0.9-0.3,1.9,0.3,2.1,1.2c0.3,0.9-0.3,1.9-1.2,2.1c-6,1.7-9.1,8.4-9.4,14.2
										c-0.3,5.4,1.4,12,7.4,14.6c0.7,0.3,1.1,1,1,1.7c-0.1,0.7-0.6,1.3-1.3,1.5c-6.5,1.7-8.4,7.2-8.9,10.4
										c-1.2,7.2,1.9,15.1,7.2,18.5c5,3.4,14.7,5.7,22.1,3.8c3.8-1,6.4-2.9,7.9-5.7c0.4-0.7,1.1-1,1.8-0.9
										c0.7,0.1,1.3,0.8,1.4,1.5c0.4,4.9,5.7,6.8,8.8,7.6c7.8,1.9,17.5-0.1,19.9-4.1c0.5-0.8,1.5-1,2.4-0.6c0.8,0.5,1,1.5,0.6,2.4
										C1042.6-281.1,1035.7-279.1,1028.8-279.1z"/>
								</g>
								<g>
									<path class="st10" d="M1050.9-279.7c-1,0-2-0.2-3-0.6c-4.5-1.9-7.3-7.6-8.5-12.4c-0.2-0.9,0.3-1.8,1.3-2.1
										c0.9-0.2,1.8,0.3,2.1,1.3c0.9,3.8,3.2,8.7,6.4,10c1.5,0.6,3,0.4,4.8-0.6c0.8-0.5,1.9-0.2,2.3,0.6c0.5,0.8,0.2,1.9-0.6,2.3
										C1054.1-280.2,1052.5-279.7,1050.9-279.7z"/>
								</g>
								<g>
									<path class="st10" d="M1006.4-230.3c-3.6,0-7.4-1.3-9.6-3.4c-8.4-7.2-6.8-18.9-6-22.9c-2.3-1.4-7.3-4.6-8.8-7.3
										c-3-4.1-3.6-7-3.6-11.4c0-4.4,0.5-8.2,1.7-12.2c0.3-0.9,1.2-1.4,2.1-1.1c0.9,0.3,1.4,1.2,1.1,2.1
										c-1.1,3.6-1.6,7.2-1.6,11.2c0,3.9,0.4,6,3,9.4c0.1,0.1,0.1,0.1,0.1,0.2c1,1.9,5.9,5.1,8.7,6.7c0.7,0.4,1,1.2,0.8,2
										c0,0.1-3.7,13.5,4.7,20.7c1.7,1.6,5,2.7,7.9,2.5c1.9-0.1,3.4-0.7,4.3-1.7c0.6-0.7,1.7-0.8,2.4-0.1c0.7,0.6,0.8,1.7,0.1,2.4
										c-1.5,1.7-3.8,2.7-6.7,2.8C1006.8-230.3,1006.6-230.3,1006.4-230.3z"/>
								</g>
								<g>
									<path class="st10" d="M1034.9-213.8c-4.8,0-9.6-0.9-13.4-3.3c-18.7-12.1-10-41.4-2.8-55.2c0.4-0.8,1.5-1.2,2.3-0.7
										c0.8,0.4,1.2,1.5,0.7,2.3c-6.7,12.8-15,39.9,1.6,50.7c6.9,4.4,19.2,3,27.6-0.2c7.3-3,9.6-7.2,12.8-13c1-1.9,2.1-3.9,3.5-6
										c0.5-0.8,1.6-1,2.4-0.5c0.8,0.5,1,1.6,0.5,2.4c-1.3,2-2.3,3.9-3.3,5.8c-3.2,5.9-6,11.1-14.5,14.5
										C1048.1-215.5,1041.5-213.8,1034.9-213.8z"/>
								</g>
								<g>
									<path class="st10" d="M1022.8-334.5c-0.4,0-0.8,0-1.2,0c-5-0.4-9-3-10.7-7.1c-0.4-0.9,0.1-1.9,0.9-2.2
										c0.9-0.4,1.9,0.1,2.2,0.9c1.2,2.9,4.1,4.7,7.8,5c4.3,0.3,8.2-1.5,10.1-4.6c0.5-0.8,1.5-1.1,2.3-0.6
										c0.8,0.5,1.1,1.5,0.6,2.3C1032.5-336.9,1027.9-334.5,1022.8-334.5z"/>
								</g>
								<g>
									<path class="st10" d="M1037.4-315.8c-4.9,0-9.5-1.7-12.7-4.8c-3.9-3.8-5.1-9.3-3.4-15.5c0.2-0.9,1.2-1.5,2.1-1.2
										c0.9,0.2,1.4,1.2,1.2,2.1c-1.4,5-0.5,9.2,2.5,12.2c3.6,3.5,9.6,4.7,15.2,3.1c12.4-3.6,24.6-20.5,24.6-34.1
										c0-0.9,0.8-1.7,1.7-1.7c0.9,0,1.7,0.8,1.7,1.7c0,15.1-13.2,33.3-27.1,37.3C1041.3-316.1,1039.4-315.8,1037.4-315.8z"/>
								</g>
								<g>
									<path class="st10" d="M1023.4-307.7c-1.3,0-2.4-0.1-3.5-0.3c-0.9-0.2-1.5-1.1-1.4-2c0.2-0.9,1.1-1.5,2-1.4
										c5.9,1.1,17.3-1.7,20.8-7.8c0.5-0.8,1.5-1.1,2.3-0.6c0.8,0.5,1.1,1.5,0.6,2.3C1040.5-310.9,1030.6-307.7,1023.4-307.7z"/>
								</g>
							</g>
						</g>
						<g>
							<g>
								<g class="st9">
									<path d="M1169.7-282.7c14.1-6.2,16.6-29.5,2.3-33.2l0,0c12.9-4.4,7.2-33.5-4.7-32c1.2-11.9-1-26.2-19.5-27.7
										c0.5-14.8-18.7-23.7-30.7-15.2c-0.5-6.7-5.1-11.9-5.1-11.9c-6.1-5.5-27-6.2-27,5.5V-234c5.5,8.6,6.6,15.4,17.1,19.7
										c8.3,3.1,21.5,4.9,29.2,0c0,0,10.9-11.7,9.9-15.6c3.3,3.7,11.3,2.4,14.6-0.7c9.4-8,5.2-22.5,5.2-22.5s7.7-4.3,9.4-7.4
										c2.8-3.7,3.3-6.2,3.3-10.5C1173.6-275.3,1170.8-279,1169.7-282.7z"/>
								</g>
								<g>
									<g>
										<g>
											<path class="st16" d="M1163.6-287.6c14.1-6.2,16.6-29.5,2.3-33.2l0,0c12.9-4.4,7.2-33.5-4.7-32
												c1.2-11.9-1-26.2-19.5-27.7c0.5-14.8-18.7-23.7-30.7-15.2c-0.5-6.7-5.1-11.9-5.1-11.9c-6.1-5.5-27-6.2-27,5.5V-239
												c5.5,8.6,6.6,15.4,17.1,19.7c8.3,3.1,21.5,4.9,29.2,0c0,0,10.9-11.7,9.9-15.6c3.3,3.7,11.3,2.4,14.6-0.7
												c9.4-8,5.2-22.5,5.2-22.5s7.7-4.3,9.4-7.4c2.8-3.7,3.3-6.2,3.3-10.5C1167.5-280.2,1164.7-283.9,1163.6-287.6z"/>
										</g>
									</g>
								</g>
							</g>
							<g>
								<g>
									<path class="st10" d="M1078.7-236.6c-0.9,0-1.7-0.8-1.7-1.7v-163.1c0-4.2,2.3-7.5,6.6-9.4c7-3.1,18.5-1.8,23.3,2.6
										c5.6,5.3,7.2,13.5,4.2,21.4c-2.8,7.5-9,12.6-15.8,12.9c-0.9,0-1.7-0.7-1.8-1.6c0-0.9,0.7-1.7,1.6-1.8
										c5.4-0.3,10.4-4.5,12.7-10.7c1.9-5.2,2.1-12.6-3.4-17.7c-3.4-3.1-13.3-4.7-19.5-2c-3,1.3-4.5,3.4-4.5,6.3v163.1
										C1080.4-237.4,1079.7-236.6,1078.7-236.6z"/>
								</g>
								<g>
									<path class="st10" d="M1135.3-320.6c-4.4,0-8.5-1.6-12-4.7c-0.7-0.6-0.8-1.7-0.2-2.4c0.6-0.7,1.7-0.8,2.4-0.2
										c4.2,3.6,9,4.7,14.2,3.2c9.2-2.6,17-12,18.8-17.6c3.7-11.3,2.5-23.5-3-30.4c-3.4-4.2-8.1-6.1-14-5.5
										c-0.5,0.1-1-0.1-1.3-0.5c-0.4-0.3-0.6-0.8-0.5-1.3c0.2-5.8-3.1-11.2-8.9-14.3c-6.3-3.4-13.8-3.2-19.1,0.6
										c-0.8,0.5-1.8,0.4-2.4-0.4c-0.5-0.8-0.4-1.8,0.4-2.4c6.3-4.5,15.2-4.8,22.7-0.8c6.3,3.4,10.2,9.2,10.6,15.6
										c6.2-0.1,11.4,2.2,15.1,6.9c6.2,7.7,7.6,21.2,3.5,33.6c-2.4,7.4-11.5,17.2-21.1,19.8
										C1138.8-320.8,1137.1-320.6,1135.3-320.6z"/>
								</g>
								<g>
									<path class="st10" d="M1118.5-279.1c-6.9,0-13.8-2.1-16.5-6.4c-0.5-0.8-0.2-1.9,0.6-2.4c0.8-0.5,1.9-0.3,2.4,0.6
										c2.4,3.9,12.1,5.9,19.9,4.1c3.1-0.7,8.4-2.7,8.8-7.6c0.1-0.8,0.6-1.4,1.4-1.5c0.7-0.1,1.5,0.2,1.8,0.9
										c1.5,2.8,4.1,4.7,7.9,5.7c7.5,1.9,17.1-0.5,22.1-3.8c5.3-3.4,8.4-11.4,7.2-18.5c-0.5-3.2-2.3-8.7-8.9-10.4
										c-0.7-0.2-1.2-0.8-1.3-1.5c-0.1-0.7,0.4-1.4,1-1.7c6-2.6,7.7-9.3,7.4-14.6c-0.4-5.8-3.4-12.4-9.4-14.2
										c-0.9-0.3-1.4-1.2-1.2-2.1c0.3-0.9,1.2-1.4,2.1-1.2c7.6,2.2,11.5,10.2,11.9,17.2c0.4,6.8-1.9,12.7-6.2,16.1
										c4.2,2.3,7.1,6.4,8,11.8c1.4,8.6-2.3,17.8-8.7,21.9c-5.5,3.7-16.1,6.5-24.8,4.3c-3.3-0.8-6-2.3-7.9-4.4
										c-1.7,3.3-5.3,5.8-10.4,7C1123.4-279.3,1121-279.1,1118.5-279.1z"/>
								</g>
								<g>
									<path class="st10" d="M1096.4-279.7c-1.6,0-3.2-0.5-4.8-1.5c-0.8-0.5-1.1-1.5-0.6-2.3c0.5-0.8,1.5-1.1,2.3-0.6
										c1.7,1,3.3,1.2,4.8,0.6c3.3-1.4,5.5-6.3,6.4-10c0.2-0.9,1.2-1.5,2.1-1.3c0.9,0.2,1.5,1.1,1.3,2.1c-1.2,4.8-4,10.5-8.5,12.4
										C1098.5-279.9,1097.5-279.7,1096.4-279.7z"/>
								</g>
								<g>
									<path class="st10" d="M1141-230.3c-0.2,0-0.4,0-0.7,0c-2.9-0.1-5.2-1.1-6.7-2.8c-0.6-0.7-0.6-1.8,0.1-2.4
										c0.7-0.6,1.8-0.6,2.4,0.1c0.9,1,2.4,1.6,4.3,1.7c2.9,0.1,6.1-0.9,7.8-2.5c8.4-7.2,4.8-20.6,4.8-20.7
										c-0.2-0.8,0.1-1.6,0.8-2c2.8-1.6,7.7-4.8,8.7-6.7c0-0.1,0.1-0.1,0.1-0.2c2.6-3.4,3-5.6,3-9.4c0-4-0.5-7.6-1.6-11.2
										c-0.3-0.9,0.2-1.9,1.1-2.1c0.9-0.3,1.9,0.2,2.1,1.2c1.2,3.9,1.7,7.8,1.7,12.2c0,4.4-0.5,7.3-3.6,11.4
										c-1.6,2.7-6.5,5.9-8.8,7.3c0.8,3.9,2.4,15.7-6.1,22.9C1148.4-231.6,1144.6-230.3,1141-230.3z"/>
								</g>
								<g>
									<path class="st10" d="M1112.4-213.8c-6.6,0-13.1-1.6-17.2-3.2c-8.6-3.5-11.3-8.6-14.6-14.6c-1-1.9-2-3.8-3.3-5.8
										c-0.5-0.8-0.3-1.9,0.5-2.4c0.8-0.5,1.9-0.3,2.4,0.5c1.4,2.1,2.4,4.1,3.5,6c3.2,5.8,5.4,10,12.8,13
										c8.4,3.1,20.7,4.5,27.6,0.1c16.6-10.8,8.3-37.9,1.6-50.7c-0.4-0.8-0.1-1.9,0.7-2.3c0.8-0.4,1.9-0.1,2.3,0.7
										c7.2,13.8,15.9,43-2.8,55.2C1122-214.7,1117.2-213.8,1112.4-213.8z"/>
								</g>
								<g>
									<path class="st10" d="M1124.5-334.5c-5.1,0-9.7-2.4-12.1-6.3c-0.5-0.8-0.2-1.9,0.6-2.3c0.8-0.5,1.9-0.2,2.3,0.6
										c1.9,3.1,5.8,4.9,10.1,4.6c3.7-0.3,6.6-2.1,7.8-5c0.4-0.9,1.4-1.3,2.2-0.9c0.9,0.4,1.3,1.4,0.9,2.2
										c-1.7,4.1-5.7,6.7-10.7,7.1C1125.3-334.5,1124.9-334.5,1124.5-334.5z"/>
								</g>
								<g>
									<path class="st10" d="M1109.9-315.8c-1.9,0-3.9-0.3-5.8-0.8c-13.9-4.1-27.1-22.2-27.1-37.3c0-0.9,0.8-1.7,1.7-1.7
										c0.9,0,1.7,0.8,1.7,1.7c0,13.6,12.2,30.4,24.6,34.1c5.5,1.6,11.6,0.4,15.2-3.1c3-3,3.9-7.2,2.5-12.2
										c-0.2-0.9,0.3-1.8,1.2-2.1c0.9-0.3,1.8,0.3,2.1,1.2c1.7,6.2,0.5,11.7-3.4,15.5C1119.5-317.5,1114.8-315.8,1109.9-315.8z"/>
								</g>
								<g>
									<path class="st10" d="M1124-307.7c-7.2,0-17.1-3.2-20.9-9.7c-0.5-0.8-0.2-1.9,0.6-2.3c0.8-0.5,1.9-0.2,2.3,0.6
										c3.5,6.1,14.8,8.9,20.8,7.8c0.9-0.2,1.8,0.4,2,1.4c0.2,0.9-0.4,1.8-1.4,2C1126.4-307.8,1125.2-307.7,1124-307.7z"/>
								</g>
							</g>
						</g>
					</g>
				</g>
				<g class="st0">
					<linearGradient id="SVGID_3_" gradientUnits="userSpaceOnUse" x1="631.816" y1="-330.3385" x2="941.4193" y2="-330.3385">
						<stop  offset="0" style="stop-color:#1D1D1B"/>
						<stop  offset="8.962709e-02" style="stop-color:#1D1D1B;stop-opacity:0.9104"/>
						<stop  offset="1" style="stop-color:#1D1D1B;stop-opacity:0"/>
					</linearGradient>
					<polyline class="st17" points="631.8,-354.9 832.7,-203.1 941.4,-322.3 753.4,-457.6 					"/>
					<linearGradient id="SVGID_4_" gradientUnits="userSpaceOnUse" x1="714.5062" y1="-348.6793" x2="980.0082" y2="-348.6793">
						<stop  offset="0" style="stop-color:#1D1D1B"/>
						<stop  offset="8.962709e-02" style="stop-color:#1D1D1B;stop-opacity:0.9104"/>
						<stop  offset="1" style="stop-color:#1D1D1B;stop-opacity:0"/>
					</linearGradient>
					<polyline class="st18" points="714.5,-382.6 915.4,-230.8 980,-308.9 760.9,-466.6 					"/>
					<g class="st8">
						<g>
							<g class="st9">
								<path class="st19" d="M772.8-451.2l-10.1-10.2c-1.3-1.3-3.5-1.4-4.9-0.1l-4.4,4c-2.8-1.6-5.8-2.9-8.8-3.8l0.3-5.8
									c0.1-1.8-1.4-3.4-3.3-3.5l-14.7-0.6c-1.9-0.1-3.5,1.3-3.6,3.2l-0.3,5.5c-3.7,0.7-7.4,1.9-10.9,3.6l-3.7-3.7
									c-1.3-1.3-3.5-1.4-4.9-0.1l-10.7,9.7c-1.4,1.3-1.4,3.3-0.1,4.7l3.1,3.1c-2.1,3-3.8,6.1-5,9.4l-4-0.2
									c-1.9-0.1-3.5,1.3-3.6,3.2l-0.6,14.1c-0.1,1.8,1.4,3.4,3.3,3.4l3.1,0.1c0.8,4.3,2.2,8.4,4.4,12.3l-1.9,1.7
									c-1.4,1.3-1.4,3.4-0.1,4.7l10.1,10.2c1.3,1.3,3.5,1.4,4.9,0.1l1.6-1.5c3.6,2.2,7.4,3.9,11.4,5l-0.1,2.2
									c-0.1,1.8,1.4,3.4,3.3,3.4l14.7,0.6c1.9,0.1,3.5-1.3,3.6-3.2l0.1-2.5c4.4-1,8.7-2.6,12.6-4.9l2.1,2.1
									c1.3,1.3,3.5,1.4,4.9,0.1l10.7-9.7c1.4-1.3,1.4-3.3,0.1-4.7l-2.7-2.7c1.8-3.1,3.2-6.4,4.2-9.9l4.4,0.2
									c1.9,0.1,3.5-1.3,3.6-3.2l0.6-14.1c0.1-1.8-1.4-3.4-3.3-3.4l-5.3-0.2c-1-3.5-2.4-7-4.4-10.3l4.1-3.8
									C774-447.8,774.1-449.9,772.8-451.2z M744.4-434.2c6.9,6.9,6.6,17.9-0.7,24.5c-7.3,6.6-18.7,6.3-25.6-0.6
									c-6.9-6.9-6.6-17.9,0.7-24.5C726.1-441.5,737.5-441.2,744.4-434.2z"/>
								<path class="st19" d="M712.9-405.5l-8.7-11.4c-1.1-1.5-3.3-1.8-4.8-0.7l-4.9,3.5c-2.6-1.9-5.3-3.6-8.2-4.9l1-5.7
									c0.3-1.8-0.9-3.5-2.8-3.8l-14.5-2.4c-1.9-0.3-3.7,0.9-4,2.7l-1,5.4c-3.8,0.2-7.6,1-11.3,2.2l-3.2-4.2
									c-1.1-1.5-3.3-1.8-4.8-0.7l-11.8,8.3c-1.5,1.1-1.9,3.2-0.7,4.6l2.7,3.5c-2.5,2.7-4.5,5.6-6.2,8.7l-3.9-0.7
									c-1.9-0.3-3.7,0.9-4,2.7l-2.5,13.9c-0.3,1.8,0.9,3.5,2.8,3.8l3,0.5c0.2,4.3,1.1,8.6,2.7,12.8l-2.1,1.5
									c-1.5,1.1-1.9,3.2-0.7,4.6l8.7,11.4c1.1,1.5,3.3,1.8,4.8,0.7l1.8-1.3c3.2,2.6,6.8,4.8,10.6,6.3l-0.4,2.1
									c-0.3,1.8,1,3.5,2.8,3.8l14.5,2.4c1.9,0.3,3.7-0.9,4-2.7l0.4-2.4c4.5-0.4,9-1.5,13.2-3.4l1.8,2.3c1.1,1.5,3.3,1.8,4.8,0.7
									l11.9-8.3c1.5-1.1,1.9-3.1,0.7-4.6l-2.3-3c2.2-2.9,4.1-6,5.4-9.3l4.3,0.7c1.9,0.3,3.7-0.9,4-2.7l2.5-13.9
									c0.3-1.8-0.9-3.5-2.8-3.8l-5.2-0.9c-0.5-3.6-1.5-7.2-3-10.7l4.6-3.2C713.7-402,714-404,712.9-405.5z M686.5-394.8
									c7.5,9.8,5.3,23.7-5,30.9c-10.3,7.2-24.7,5.1-32.2-4.7c-7.5-9.8-5.3-23.7,5-30.9C664.6-406.8,679-404.7,686.5-394.8z"/>
								<path class="st19" d="M841.6-370l-2.5-7c-0.3-0.9-1.4-1.4-2.3-1.1l-3.1,1c-1-1.4-2.1-2.6-3.3-3.7l1.5-2.7
									c0.5-0.9,0.1-1.9-0.8-2.4l-6.9-3.4c-0.9-0.4-2-0.1-2.5,0.8l-1.4,2.6c-2-0.5-4-0.7-6.1-0.6l-0.9-2.6
									c-0.3-0.9-1.4-1.4-2.3-1.1l-7.4,2.4c-0.9,0.3-1.5,1.3-1.1,2.2l0.8,2.2c-1.7,1-3.2,2.1-4.6,3.5L797-381
									c-0.9-0.5-2-0.1-2.5,0.7l-3.5,6.6c-0.5,0.9-0.1,1.9,0.8,2.4l1.4,0.7c-0.6,2.2-0.9,4.5-0.7,6.9l-1.3,0.4
									c-1,0.3-1.5,1.3-1.2,2.2l2.5,7c0.3,0.9,1.4,1.4,2.3,1.1l1.1-0.4c1.2,1.8,2.6,3.4,4.3,4.8l-0.5,1c-0.5,0.9-0.1,1.9,0.8,2.4
									l6.9,3.4c0.9,0.4,2,0.1,2.5-0.8l0.6-1.2c2.3,0.5,4.7,0.6,7.2,0.3l0.5,1.5c0.3,0.9,1.4,1.4,2.3,1.1l7.4-2.4
									c0.9-0.3,1.5-1.3,1.1-2.2l-0.7-1.9c1.6-1.1,3.1-2.4,4.3-3.8l2.1,1c0.9,0.5,2,0.1,2.5-0.8l3.6-6.6c0.5-0.9,0.1-1.9-0.8-2.4
									l-2.5-1.2c0.4-1.9,0.4-3.9,0.3-5.8l2.9-0.9C841.5-368.1,842-369.1,841.6-370z M826.6-368.7c2.2,6.1-1.3,12.7-7.6,14.8
									c-6.4,2.1-13.3-1.2-15.4-7.3c-2.2-6.1,1.3-12.7,7.6-14.8C817.5-378,824.5-374.8,826.6-368.7z"/>
							</g>
							<g>
								<g>
									<path class="st20" d="M771-456.4l-10.1-10.2c-1.3-1.3-3.5-1.4-4.9-0.1l-4.4,4c-2.8-1.6-5.8-2.9-8.8-3.8l0.3-5.8
										c0.1-1.8-1.4-3.4-3.3-3.5l-14.7-0.6c-1.9-0.1-3.5,1.3-3.6,3.2l-0.3,5.5c-3.7,0.7-7.4,1.9-10.9,3.6l-3.7-3.7
										c-1.3-1.3-3.5-1.4-4.9-0.1l-10.7,9.7c-1.4,1.3-1.4,3.3-0.1,4.7l3.1,3.1c-2.1,3-3.8,6.1-5,9.4l-4-0.2
										c-1.9-0.1-3.5,1.3-3.6,3.2l-0.6,14.1c-0.1,1.8,1.4,3.4,3.3,3.4l3.1,0.1c0.8,4.3,2.2,8.4,4.4,12.3l-1.9,1.7
										c-1.4,1.3-1.4,3.4-0.1,4.7l10.1,10.2c1.3,1.3,3.5,1.4,4.9,0.1l1.6-1.5c3.6,2.2,7.4,3.9,11.4,5l-0.1,2.2
										c-0.1,1.8,1.4,3.4,3.3,3.5l14.7,0.6c1.9,0.1,3.5-1.3,3.6-3.2l0.1-2.5c4.4-1,8.7-2.6,12.6-4.9l2.1,2.1
										c1.3,1.3,3.5,1.4,4.9,0.1l10.7-9.7c1.4-1.3,1.4-3.3,0.1-4.7l-2.7-2.7c1.8-3.1,3.3-6.4,4.2-9.9l4.4,0.2
										c1.9,0.1,3.5-1.3,3.6-3.2l0.6-14.1c0.1-1.8-1.4-3.4-3.3-3.4l-5.3-0.2c-0.9-3.5-2.4-7-4.4-10.2l4.1-3.8
										C772.2-453,772.3-455,771-456.4z M742.7-439.3c6.9,6.9,6.6,17.9-0.7,24.5c-7.2,6.6-18.7,6.3-25.6-0.6
										c-6.9-6.9-6.6-17.9,0.7-24.5C724.3-446.6,735.8-446.3,742.7-439.3z"/>
									<path class="st21" d="M711.1-410.6l-8.7-11.4c-1.1-1.5-3.3-1.8-4.8-0.7l-4.9,3.5c-2.6-1.9-5.3-3.6-8.2-4.9l1-5.7
										c0.3-1.8-0.9-3.5-2.8-3.8l-14.5-2.4c-1.9-0.3-3.7,0.9-4,2.7l-1,5.4c-3.8,0.2-7.6,1-11.3,2.2l-3.2-4.2
										c-1.1-1.5-3.3-1.8-4.8-0.7l-11.9,8.3c-1.5,1.1-1.9,3.2-0.7,4.6l2.7,3.5c-2.5,2.7-4.5,5.6-6.2,8.8l-3.9-0.7
										c-1.9-0.3-3.7,0.9-4,2.7l-2.5,13.9c-0.3,1.8,0.9,3.5,2.8,3.8l3,0.5c0.2,4.3,1.1,8.6,2.7,12.8l-2.1,1.5
										c-1.5,1.1-1.9,3.2-0.7,4.6l8.7,11.4c1.1,1.5,3.3,1.8,4.8,0.7l1.8-1.3c3.2,2.6,6.8,4.7,10.6,6.3l-0.4,2.1
										c-0.3,1.8,1,3.5,2.8,3.8l14.5,2.4c1.9,0.3,3.7-0.9,4-2.7l0.4-2.4c4.5-0.4,9-1.5,13.2-3.4l1.8,2.3c1.1,1.5,3.3,1.8,4.8,0.7
										l11.9-8.3c1.5-1.1,1.9-3.1,0.7-4.6l-2.3-3c2.2-2.9,4.1-6,5.4-9.3l4.3,0.7c1.9,0.3,3.7-0.9,4-2.7l2.5-13.9
										c0.3-1.8-0.9-3.5-2.8-3.8l-5.2-0.9c-0.5-3.6-1.5-7.2-3-10.7l4.6-3.2C711.9-407.1,712.2-409.2,711.1-410.6z M684.8-400
										c7.5,9.8,5.3,23.7-5,30.9c-10.3,7.2-24.7,5.1-32.2-4.7c-7.5-9.8-5.3-23.7,5-30.9C662.8-411.9,677.2-409.8,684.8-400z"/>
									<path class="st13" d="M839.9-375.1l-2.5-7c-0.3-0.9-1.4-1.4-2.3-1.1l-3.1,1c-1-1.4-2.1-2.6-3.3-3.7l1.5-2.7
										c0.5-0.9,0.1-1.9-0.8-2.4l-6.9-3.4c-0.9-0.5-2-0.1-2.5,0.8l-1.4,2.6c-2-0.5-4-0.7-6.1-0.6l-0.9-2.6
										c-0.3-0.9-1.4-1.4-2.3-1.1L802-393c-0.9,0.3-1.5,1.3-1.1,2.2l0.8,2.2c-1.7,1-3.2,2.1-4.6,3.5l-1.9-0.9
										c-0.9-0.5-2-0.1-2.5,0.7l-3.5,6.6c-0.5,0.9-0.1,1.9,0.8,2.4l1.4,0.7c-0.6,2.2-0.9,4.5-0.7,6.9l-1.3,0.4
										c-1,0.3-1.5,1.3-1.1,2.2l2.5,7c0.3,0.9,1.4,1.4,2.3,1.1l1.1-0.4c1.2,1.8,2.7,3.4,4.3,4.8l-0.5,1c-0.5,0.9-0.1,1.9,0.8,2.4
										l6.9,3.4c0.9,0.4,2,0.1,2.5-0.8l0.6-1.2c2.3,0.5,4.7,0.6,7.2,0.3l0.5,1.5c0.3,0.9,1.4,1.4,2.3,1.1l7.4-2.4
										c0.9-0.3,1.5-1.3,1.1-2.2l-0.7-1.9c1.6-1.1,3.1-2.4,4.3-3.8l2.1,1c0.9,0.5,2,0.1,2.5-0.8l3.6-6.6c0.5-0.9,0.1-1.9-0.8-2.4
										l-2.5-1.2c0.4-1.9,0.5-3.9,0.3-5.8l2.9-0.9C839.7-373.2,840.2-374.2,839.9-375.1z M824.8-373.8c2.2,6.1-1.3,12.7-7.6,14.8
										c-6.4,2.1-13.3-1.2-15.4-7.3c-2.2-6.1,1.2-12.7,7.6-14.8C815.8-383.1,822.7-379.9,824.8-373.8z"/>
								</g>
							</g>
						</g>
						<g>
							<g>
								<path class="st10" d="M666.7-363.9c-8.2,0-15.4-3.4-19.7-9.4c-3.6-5-5.1-11-4-16.9c1.2-6.5,5.3-12.4,11.6-16.7l56.6-32.8
									c6.7-4.4,13.3-6.8,19.2-6.8c6.1,0,11.2,2.6,14.8,7.5c3.1,4.2,4.3,9,3.4,13.8c-1.1,6.4-5.9,12.7-13.4,17.7l-51.2,38.2
									C678.7-365.7,672.8-363.9,666.7-363.9z M730.4-443.2c-5.2,0-11.3,2.2-17.5,6.3l-56.6,32.8c-5.5,3.7-9.1,8.8-10.1,14.5
									c-0.9,5,0.3,10.1,3.5,14.4c3.7,5.1,9.9,8,17.1,8c5.4,0,10.7-1.6,15.3-4.7l51.2-38.2c6.9-4.6,11.1-10.1,12.1-15.6
									c0.7-3.9-0.3-7.7-2.8-11.3C739.6-441.1,735.5-443.2,730.4-443.2z"/>
							</g>
							<g>
								<path class="st10" d="M814.1-356.4c-4.7,0-9.8-1.8-15-5.3l-80.8-50.1c-10.4-8-10.2-19.6-4.8-27.2l0.1-0.1
									c0-0.1,0.1-0.1,0.1-0.2c3-4.1,8.9-6.7,15.5-6.7c4.7,0,9.2,1.3,12.9,3.8l74.2,55.4c10,6.8,13.5,16.1,9.3,24.3
									c-0.1,0.1-0.1,0.2-0.2,0.3l-0.8,1C822.2-358,818.5-356.4,814.1-356.4z M716.5-437.5L716.5-437.5c-0.1,0.2-0.1,0.3-0.2,0.3
									c-4.5,6-5.2,15.7,3.9,22.7l80.7,50.1c4.6,3.1,9.2,4.8,13.2,4.8c3.4,0,6.1-1.2,8-3.6l0.7-0.8c3.4-6.7,0.3-14.2-8.3-20
									l-74.2-55.4c-3.9-2.7-8.2-3.2-11-3.2C723.9-442.7,718.9-440.7,716.5-437.5z"/>
							</g>
						</g>
					</g>
				</g>
				<g class="st0">
					<linearGradient id="SVGID_5_" gradientUnits="userSpaceOnUse" x1="292.5157" y1="-203.1152" x2="644.2626" y2="-203.1152">
						<stop  offset="0" style="stop-color:#1D1D1B"/>
						<stop  offset="8.962709e-02" style="stop-color:#1D1D1B;stop-opacity:0.9104"/>
						<stop  offset="1" style="stop-color:#1D1D1B;stop-opacity:0"/>
					</linearGradient>
					<polyline class="st22" points="292.5,-193.7 494.1,-22.6 644.3,-203.1 406.8,-383.6 					"/>
					<g class="st8">
						<g>
							<g>
								<g>
									<g class="st9">
										<path d="M449.4-189.2l-137.8-0.2c-9.9,0-17.1-5.5-17.1-13.1c0-7,3.1-11.6,3.6-12.3l56.3-93.2l0.1-60.5
											c-5.1-5-6.9-8.4-5.9-10.7c0.4-0.8,1.4-2.2,4.4-2.2c0.2,0,0.4,0,0.6,0c0.7-0.2,1.6-0.2,2.6-0.2c1.6,0,3.2,0.2,3.6,0.3
											l42,0.1c0.5-0.1,2-0.3,3.6-0.3c1,0,1.9,0.1,2.6,0.2c0.2,0,0.4,0,0.6,0c3,0,4,1.4,4.4,2.2c1,2.4-0.8,5.7-6,10.7l-0.1,60.5
											l56.1,93.3c0.5,0.7,3.6,5.3,3.6,12.3C466.6-194.7,459.3-189.2,449.4-189.2"/>
									</g>
									<g>
										<path class="st23" d="M443.3-193.7l-137.8-0.2c-9.9,0-17.1-5.5-17.1-13.1c0-7,3.1-11.6,3.6-12.3l56.3-93.2l0.1-60.5
											c-5.1-5-6.9-8.4-5.9-10.7c0.4-0.8,1.4-2.2,4.4-2.2c0.2,0,0.4,0,0.6,0c0.7-0.1,1.6-0.2,2.6-0.2c1.6,0,3.2,0.2,3.6,0.3
											l42,0.1c0.5-0.1,2-0.3,3.6-0.3c1,0,1.9,0.1,2.6,0.2c0.2,0,0.4,0,0.6,0c3,0,4,1.4,4.4,2.2c1,2.4-0.8,5.7-6,10.7l-0.1,60.5
											l56.1,93.3c0.5,0.7,3.6,5.3,3.6,12.3C460.4-199.2,453.2-193.7,443.3-193.7"/>
									</g>
								</g>
							</g>
							<g>
								<path class="st13" d="M352.7-296l-49.1,75.4c0,0-3.8,6.8-2,11.8c1.8,5,3,8.1,19,8.1l115.4,0.1c0,0,10.6,0.3,12.6-7.7
									c2-8-1.2-11.9-7.5-21.4c-6.3-9.5-40.6-66.3-40.6-66.3H352.7"/>
								<g>
									<ellipse class="st24" cx="364" cy="-271.6" rx="4.6" ry="4.4"/>
									<ellipse class="st24" cx="413.1" cy="-218.4" rx="4.6" ry="4.4"/>
									<ellipse class="st24" cx="328.3" cy="-218.4" rx="6.4" ry="6.2"/>
									<ellipse class="st24" cx="358.3" cy="-238.2" rx="3.4" ry="3.3"/>
									<ellipse class="st24" cx="393.7" cy="-255.3" rx="10.2" ry="9.8"/>
								</g>
							</g>
						</g>
						<g>
							<g>
								<g class="st9">
									<ellipse cx="389.7" cy="-406.1" rx="9.2" ry="8.8"/>
								</g>
								<g>
									<ellipse class="st13" cx="383.5" cy="-410.6" rx="9.2" ry="8.8"/>
								</g>
							</g>
							<g>
								<g class="st9">
									<ellipse cx="364.4" cy="-433.6" rx="12.1" ry="11.6"/>
								</g>
								<g>
									<ellipse class="st13" cx="358.3" cy="-438.1" rx="12.1" ry="11.6"/>
								</g>
							</g>
							<g>
								<g class="st9">
									<ellipse cx="398.9" cy="-445.1" rx="7.1" ry="6.8"/>
								</g>
								<g>
									<ellipse class="st13" cx="392.7" cy="-449.7" rx="7.1" ry="6.8"/>
								</g>
							</g>
						</g>
					</g>
				</g>
				<g class="st0">
					<g class="st8">
						
							<linearGradient id="SVGID_6_" gradientUnits="userSpaceOnUse" x1="1148.7194" y1="108.1822" x2="1425.441" y2="108.1822" gradientTransform="matrix(0.9995 3.030000e-02 -3.030000e-02 0.9995 11.5069 -22.8365)">
							<stop  offset="0" style="stop-color:#1D1D1B"/>
							<stop  offset="8.962709e-02" style="stop-color:#1D1D1B;stop-opacity:0.9104"/>
							<stop  offset="1" style="stop-color:#1D1D1B;stop-opacity:0"/>
						</linearGradient>
						<polygon class="st25" points="1211.6,143.6 1428.3,281.6 1428.3,133.2 1186,-32.2 1159.3,24.9 						"/>
					</g>
					<g class="st8">
						<g>
							<g>
								<g>
									<g class="st9">
										<path d="M1208-9.9c13.4,25.8,2.4,57.1-24.6,69.9c-26.9,12.8-59.6,2.3-73-23.5c-13.4-25.8-2.4-57.1,24.6-69.9
											C1162-46.3,1194.7-35.7,1208-9.9z"/>
									</g>
									<g>
										<path class="st11" d="M1201.9-14.5c13.4,25.8,2.4,57.1-24.6,69.9c-26.9,12.8-59.6,2.3-73-23.5
											C1091,6.1,1102-25.2,1128.9-38C1155.9-50.8,1188.5-40.3,1201.9-14.5z"/>
									</g>
								</g>
							</g>
						</g>
						<g>
							<g class="st9">
								<polygon points="1213.8,103.8 1201.6,109.6 1177.4,62.9 1189.6,57.1 								"/>
							</g>
							<g>
								<g>
									<polygon class="st26" points="1207.6,99.3 1195.4,105.1 1171.2,58.3 1183.4,52.5 									"/>
								</g>
							</g>
						</g>
						<g>
							<g class="st9">
								<polygon points="1236,132 1211.6,143.6 1179.3,81.3 1203.7,69.7 								"/>
							</g>
							<g>
								<g>
									<polygon class="st11" points="1229.9,127.5 1205.5,139.1 1173.2,76.8 1197.6,65.2 									"/>
								</g>
							</g>
						</g>
						<g>
							<g>
								<path class="st27" d="M1135-26.3c9.8-4.6,20.8-5.4,31.2-2c10.3,3.3,18.7,10.3,23.6,19.7c4.8,9.4,5.6,20,2.1,29.9
									c-3.5,9.9-10.8,17.9-20.6,22.6c-9.8,4.6-20.9,5.4-31.2,2c-10.3-3.3-18.7-10.3-23.5-19.7c-4.9-9.4-5.6-20-2.1-29.9
									C1117.9-13.7,1125.2-21.7,1135-26.3L1135-26.3z"/>
							</g>
							<g>
								<g>
									<path class="st28" d="M1135.8,24.2c-3.4,1.6-7.5,0.3-9.1-2.9c-3.5-6.8-4-14.4-1.5-21.6c2.5-7.2,7.8-12.9,14.9-16.3
										c3.4-1.6,7.4-0.3,9.1,2.9c1.7,3.2,0.3,7.1-3.1,8.7c-3.8,1.8-6.6,4.9-8,8.8c-1.4,3.9-1.1,8,0.8,11.6
										C1140.6,18.7,1139.2,22.6,1135.8,24.2z"/>
								</g>
							</g>
						</g>
					</g>
				</g>
				<g class="st0">
					<g class="st8">
						<linearGradient id="SVGID_7_" gradientUnits="userSpaceOnUse" x1="202.2566" y1="73.0028" x2="531.208" y2="73.0028">
							<stop  offset="0" style="stop-color:#1D1D1B"/>
							<stop  offset="8.962709e-02" style="stop-color:#1D1D1B;stop-opacity:0.9104"/>
							<stop  offset="1" style="stop-color:#1D1D1B;stop-opacity:0"/>
						</linearGradient>
						<polyline class="st29" points="202.3,21.9 486.4,227.5 531.2,139.1 262.1,-81.5 						"/>
						<linearGradient id="SVGID_8_" gradientUnits="userSpaceOnUse" x1="214.6622" y1="231.5757" x2="574.147" y2="231.5757">
							<stop  offset="0" style="stop-color:#1D1D1B"/>
							<stop  offset="8.962709e-02" style="stop-color:#1D1D1B;stop-opacity:0.9104"/>
							<stop  offset="1" style="stop-color:#1D1D1B;stop-opacity:0"/>
						</linearGradient>
						<polyline class="st30" points="214.7,138.9 537.6,366.9 574.1,324.3 259.3,96.3 						"/>
						<g class="st31">
							<linearGradient id="SVGID_9_" gradientUnits="userSpaceOnUse" x1="161.4713" y1="165.1315" x2="680.8411" y2="165.1315">
								<stop  offset="0" style="stop-color:#1D1D1B"/>
								<stop  offset="8.962709e-02" style="stop-color:#1D1D1B;stop-opacity:0.9104"/>
								<stop  offset="1" style="stop-color:#1D1D1B;stop-opacity:0"/>
							</linearGradient>
							<polygon class="st32" points="161.5,160.6 479,408.5 680.8,214.2 333.2,-78.2 334.1,153.1 							"/>
						</g>
					</g>
					<g class="st8">
						<g class="st33">
							<path class="st34" d="M217.1,126.8l0.1,13.3c0,4.3,3.7,7.9,8.2,7.8l44-0.1c4.5,0,8.2-3.5,8.2-7.9l-0.1-13.3
								c0-4.3-3.7-7.9-8.2-7.8l-7.2,0l0-7.9c0-0.3-0.1-0.6-0.1-0.9l0.8,0c3,0,5.5-2.4,5.5-5.3c0-2.9-2.5-5.3-5.5-5.2l-12.7,0l0-5.9
								l0,5.9l-18.2,0.1c-3,0-5.5,2.4-5.5,5.3c0,2.9,2.5,5.3,5.5,5.2l0.8,0c0,0.3-0.1,0.6-0.1,0.9l0,7.9l-7.2,0
								C220.8,118.9,217.1,122.5,217.1,126.8z"/>
							<path class="st34" d="M250,73.5c0,0-13.9,20,0,20h0l0,0c0.3,0,0.5,0,0.8,0C263.3,92.8,250,73.5,250,73.5z"/>
							<path class="st34" d="M376.2,148.3l-38.7,0.1V-42.1c5.2-2.2,8.8-7.4,8.8-13.4c0-6-3.6-11.1-8.8-13.4V-90h-11.1v21
								c-4.1,1.6-7.2,5-8.5,9.2h-44.4c-1.3-2.2-3.5-3.8-6.1-4.2c2.4-1.2,4.1-3.6,4.1-6.5c0-4-3.4-7.3-7.7-7.3l-31.5,0.1
								c-4.2,0-7.6,3.3-7.6,7.3c0,2.8,1.7,5.2,4.2,6.5c-2.3,0.6-4.2,2.1-5.4,4.1h-13.7v8.7h13.7c1.5,2.6,4.3,4.4,7.5,4.4h1.1
								l0.1,17.8c-16.9,6.3-28.9,22-28.8,40.4c0.1,23.9,20.4,43.1,45.3,43.1c24.9-0.1,45-19.5,45-43.4
								c-0.1-17.9-11.5-33.3-27.8-39.8l-0.1-18.2h0.2c3.2,0,6-1.8,7.5-4.4h44.4c1.3,4.2,4.5,7.6,8.5,9.2v190.4L164.8,149l0.1,14.7
								l211.4-0.7L376.2,148.3z"/>
						</g>
						<g>
							<g>
								<path class="st23" d="M265.9,115.6l-7.2,0l0-7.9c0-0.3-0.1-0.6-0.1-0.9l0.8,0c3,0,5.5-2.4,5.5-5.3c0-2.9-2.5-5.3-5.5-5.2
									l-30.9,0.1c-3,0-5.5,2.4-5.5,5.3c0,2.9,2.5,5.3,5.5,5.2l0.8,0c0,0.3-0.1,0.6-0.1,0.9l0,7.9l-7.2,0c-4.5,0-8.2,3.5-8.2,7.9
									l0.1,13.3c0,4.3,3.7,7.9,8.2,7.8l44-0.1c4.5,0,8.2-3.5,8.2-7.9l-0.1-13.3C274.2,119.1,270.5,115.6,265.9,115.6"/>
								<g>
									<path class="st20" d="M270.5,125.1l0,10.1c0,3.3-3.2,6-7.2,6l-38.7,0.1c-4,0-7.2-2.7-7.3-6l0-10.1"/>
									<g>
										<path class="st35" d="M246.7,131.4c0,0,6.8,1.7,5.1-6.5c-1-4.8-5.2-2.4-5.2-8.5l-0.1-25.9"/>
										<g>
											<path class="st36" d="M246.6,70.4c0,0-13.9,20,0,20C260.5,90.4,246.6,70.4,246.6,70.4z"/>
											<path class="st13" d="M246.6,77.5c0,0-9,13,0,13C255.6,90.4,246.6,77.5,246.6,77.5z"/>
										</g>
									</g>
								</g>
							</g>
							<g>
								<path class="st23" d="M262.4-31.7l-0.1-34.9c3.3-0.8,5.8-3.7,5.8-7.1c0-4-3.4-7.3-7.7-7.3l-31.5,0.1c-4.2,0-7.6,3.3-7.6,7.3
									c0,3.9,3.3,7.1,7.4,7.3l0.1,34.2c-16.9,6.3-28.9,22-28.8,40.4c0.1,23.9,20.4,43.1,45.3,43.1c24.9-0.1,45-19.5,45-43.4
									C290.1-9.8,278.7-25.2,262.4-31.7"/>
								<g>
									<g>
										<path class="st36" d="M206.4,8.4c0.1,20.5,17.5,37,38.8,36.9c21.4-0.1,38.6-16.7,38.6-37.2L206.4,8.4z"/>
									</g>
									<g>
										<circle class="st37" cx="243.2" cy="31.9" r="2.9"/>
										<circle class="st37" cx="254.9" cy="16.7" r="3.5"/>
										<circle class="st37" cx="248.2" cy="23.2" r="2"/>
										<circle class="st37" cx="251.4" cy="31.9" r="1.2"/>
										<circle class="st37" cx="248.2" cy="38.9" r="2"/>
										<circle class="st37" cx="241.6" cy="16.7" r="1.4"/>
									</g>
								</g>
							</g>
							<g>
								
									<rect x="161.4" y="145.5" transform="matrix(1 -3.382780e-03 3.382780e-03 1 -0.5156 0.9046)" class="st26" width="211.4" height="14.7"/>
								<g>
									<g>
										<rect x="206.4" y="-62.9" class="st26" width="117.4" height="8.7"/>
										<path class="st38" d="M271.3-58.6c0,4.8-3.9,8.7-8.7,8.7h-35c-4.8,0-8.7-3.9-8.7-8.7l0,0c0-4.8,3.9-8.7,8.7-8.7h35
											C267.4-67.3,271.3-63.4,271.3-58.6L271.3-58.6z"/>
									</g>
									<g>
										<rect x="323" y="-93.1" class="st26" width="11.1" height="246.2"/>
										<g>
											<circle class="st26" cx="328.3" cy="-58.6" r="14.6"/>
											<circle class="st34" cx="328.3" cy="-58.6" r="8.7"/>
										</g>
									</g>
								</g>
							</g>
						</g>
					</g>
				</g>
				<g>
					<g class="st0">
						<linearGradient id="SVGID_10_" gradientUnits="userSpaceOnUse" x1="269.9795" y1="495.0566" x2="721.3192" y2="495.0566">
							<stop  offset="0" style="stop-color:#1D1D1B"/>
							<stop  offset="8.962709e-02" style="stop-color:#1D1D1B;stop-opacity:0.9104"/>
							<stop  offset="1" style="stop-color:#1D1D1B;stop-opacity:0"/>
						</linearGradient>
						<polygon class="st39" points="270,453.2 541.5,678.2 721.3,503.4 457,312 388.3,399.8 						"/>
					</g>
					<g>
						<g class="st9">
							<polygon points="332.8,333.6 339.6,326.1 371.8,366 363.1,371.6 							"/>
							<polygon points="384.6,497.4 383.4,432.8 393.9,428.6 395,497 							"/>
							<polygon points="455.2,417.1 416.8,412.9 417.9,402.6 456.3,406.9 							"/>
							<polygon points="412,385.2 404.5,378 453.3,328.9 460,336.9 							"/>
							<polygon points="354.2,422 322.3,439.7 317.2,430.6 349.1,413 							"/>
							<path d="M319.4,276.4c19.5-5.3,39.6,6,45,25.3c5.4,19.3-6.1,39.3-25.5,44.6c-19.5,5.3-39.6-6-45-25.3
								C288.5,301.7,299.9,281.7,319.4,276.4z"/>
							<ellipse cx="460" cy="328.8" rx="18.9" ry="18.8"/>
							<path d="M300.8,467.9c-13.5,1.6-25.7-8-27.3-21.4c-1.6-13.4,8.1-25.5,21.6-27.1c13.5-1.6,25.7,8,27.3,21.4
								C323.9,454.2,314.3,466.3,300.8,467.9z"/>
							<ellipse cx="392.2" cy="505.8" rx="19.1" ry="18.9"/>
							<ellipse cx="478.7" cy="415.1" rx="24.6" ry="24.4"/>
							<ellipse cx="385.4" cy="401.3" rx="43.5" ry="43.1"/>
						</g>
						<g>
							<g>
								<g>
									<polygon class="st10" points="326.6,329.1 333.5,321.6 365.7,361.5 356.9,367.1 									"/>
								</g>
								<g>
									<polygon class="st10" points="378.5,492.9 377.3,428.3 387.7,424.1 388.9,492.5 									"/>
								</g>
								<g>
									<polygon class="st10" points="449.1,412.6 410.6,408.4 411.8,398.1 450.2,402.3 									"/>
								</g>
								<g>
									<polygon class="st10" points="405.9,380.7 398.4,373.5 447.1,324.4 453.9,332.4 									"/>
								</g>
								<g>
									<polygon class="st10" points="348.1,417.5 316.2,435.2 311.1,426.1 343,408.5 									"/>
								</g>
								<g>
									<path class="st13" d="M313.3,271.9c19.5-5.3,39.6,6,45,25.3c5.4,19.3-6.1,39.3-25.5,44.6c-19.5,5.3-39.6-6-45-25.3
										C282.3,297.2,293.8,277.2,313.3,271.9z"/>
								</g>
								<g>
									<path class="st11" d="M434.9,324.3c0-10.4,8.5-18.8,18.9-18.8c10.5,0,18.9,8.4,18.9,18.8c0,10.4-8.5,18.8-18.9,18.8
										C443.4,343.1,434.9,334.6,434.9,324.3z"/>
								</g>
								<g>
									<path class="st14" d="M294.7,463.3c-13.5,1.6-25.7-8-27.3-21.4c-1.6-13.4,8.1-25.5,21.6-27.1c13.5-1.6,25.7,8,27.3,21.4
										C317.8,449.6,308.1,461.8,294.7,463.3z"/>
								</g>
								<g>
									<ellipse class="st36" cx="386" cy="501.2" rx="19.1" ry="18.9"/>
								</g>
								<g>
									<ellipse class="st40" cx="472.5" cy="410.6" rx="24.6" ry="24.4"/>
								</g>
								<g>
									<ellipse class="st12" cx="379.3" cy="396.7" rx="43.5" ry="43.1"/>
								</g>
							</g>
						</g>
					</g>
				</g>
				<g class="st0">
					<g class="st8">
						<linearGradient id="SVGID_11_" gradientUnits="userSpaceOnUse" x1="592.0854" y1="644.2672" x2="1259.3151" y2="644.2672">
							<stop  offset="0" style="stop-color:#1D1D1B"/>
							<stop  offset="8.962709e-02" style="stop-color:#1D1D1B;stop-opacity:0.9104"/>
							<stop  offset="1" style="stop-color:#1D1D1B;stop-opacity:0"/>
						</linearGradient>
						<polygon class="st41" points="592.1,549.7 931.7,822 1259.3,822 830.1,466.6 822.3,541.6 						"/>
					</g>
					<g class="st8">
						<g>
							<g>
								<g>
									<path class="st23" d="M756.2,472.5l-38,0.1c-3.7,0-6.7,2.9-6.7,6.5l0,3.4c0,3.6,3,6.4,6.8,6.4l0.1,0
										c-0.1,0.7-0.1,1.4-0.1,2l0.4,105.3c0,10.1,8.6,18.3,19.2,18.3c10.6,0,19.1-8.3,19.1-18.4l-0.4-105.3c0-0.7-0.1-1.4-0.1-2.1
										c3.6-0.1,6.5-3,6.5-6.5l0-3.4C762.9,475.4,759.9,472.5,756.2,472.5"/>
									<g>
										<path class="st26" d="M755.6,465.1c0,2.3-1.9,4.1-4.2,4.1l-28.4,0.1c-2.4,0-4.3-1.8-4.3-4.1c0-2.3,1.9-4.1,4.2-4.1
											l28.4-0.1C753.7,461,755.6,462.8,755.6,465.1"/>
										
											<rect x="722.3" y="465.1" transform="matrix(1 -3.606232e-03 3.606232e-03 1 -1.6897 2.6615)" class="st26" width="29.8" height="9.5"/>
									</g>
								</g>
								<g>
									<path class="st13" d="M753.1,501.6l0.3,94.5c0,8.2-6.9,14.9-15.5,15c-8.6,0-15.6-6.6-15.6-14.9l-0.4-94.5"/>
									<g>
										<ellipse class="st42" cx="740.4" cy="592.7" rx="4.3" ry="4.1"/>
										<ellipse class="st42" cx="730" cy="576.2" rx="3.1" ry="2.9"/>
										<ellipse class="st42" cx="742.4" cy="564.1" rx="2.5" ry="2.4"/>
										<ellipse class="st42" cx="744.9" cy="578.6" rx="2.5" ry="2.4"/>
									</g>
								</g>
							</g>
							<g>
								<g>
									<path class="st23" d="M679.1,472.8l-38,0.1c-3.7,0-6.7,2.9-6.7,6.5l0,3.4c0,3.6,3,6.4,6.8,6.4h0.1c-0.1,0.7-0.1,1.4-0.1,2
										l0.4,105.3c0,10.1,8.7,18.3,19.2,18.3c10.6,0,19.1-8.3,19.1-18.4l-0.4-105.3c0-0.7-0.1-1.4-0.1-2.1c3.6-0.1,6.5-3,6.5-6.5
										l0-3.4C685.9,475.6,682.8,472.8,679.1,472.8"/>
									<g>
										<path class="st26" d="M678.5,465.3c0,2.3-1.9,4.1-4.2,4.1l-28.4,0.1c-2.4,0-4.3-1.8-4.3-4.1c0-2.2,1.9-4.1,4.2-4.1
											l28.4-0.1C676.6,461.3,678.5,463.1,678.5,465.3"/>
										
											<rect x="645.2" y="465.4" transform="matrix(1 -3.435781e-03 3.435781e-03 1 -1.6114 2.2708)" class="st26" width="29.8" height="9.5"/>
										<path class="st26" d="M678.5,465.3c0,2.3-1.9,4.1-4.2,4.1l-28.4,0.1c-2.4,0-4.3-1.8-4.3-4.1c0-2.2,1.9-4.1,4.2-4.1
											l28.4-0.1C676.6,461.3,678.5,463.1,678.5,465.3"/>
										
											<rect x="645.2" y="465.4" transform="matrix(1 -3.435781e-03 3.435781e-03 1 -1.6114 2.2708)" class="st26" width="29.8" height="9.5"/>
									</g>
								</g>
								<g>
									<path class="st14" d="M676.1,524.4l0.3,71.9c0,8.2-6.9,14.9-15.5,15c-8.6,0-15.6-6.6-15.6-14.9l-0.3-71.9"/>
									<g>
										<ellipse class="st42" cx="657.6" cy="584.3" rx="4.3" ry="4.1"/>
										<ellipse class="st42" cx="660.6" cy="566.5" rx="3.1" ry="2.9"/>
										<ellipse class="st42" cx="660.1" cy="599.2" rx="2.5" ry="2.4"/>
										<ellipse class="st42" cx="669.4" cy="576.2" rx="2.5" ry="2.4"/>
									</g>
								</g>
							</g>
							<g>
								<g>
									<path class="st23" d="M833.3,472.3l-38,0.1c-3.7,0-6.7,2.9-6.7,6.5l0,3.4c0,3.6,3,6.4,6.8,6.4h0.1c-0.1,0.7-0.1,1.3-0.1,2
										l0.4,105.3c0,10.1,8.6,18.3,19.2,18.3c10.6,0,19.1-8.3,19.1-18.4l-0.4-105.3c0-0.7-0.1-1.4-0.1-2.1c3.6-0.1,6.5-3,6.5-6.5
										l0-3.4C840,475.1,837,472.3,833.3,472.3"/>
									<g>
										<path class="st26" d="M832.7,464.8c0,2.3-1.9,4.1-4.2,4.1l-28.4,0.1c-2.3,0-4.3-1.8-4.3-4.1c0-2.3,1.9-4.1,4.2-4.1
											l28.4-0.1C830.8,460.7,832.7,462.6,832.7,464.8"/>
										
											<rect x="799.4" y="464.9" transform="matrix(1 -3.495024e-03 3.495024e-03 1 -1.6364 2.8488)" class="st26" width="29.8" height="9.5"/>
									</g>
								</g>
								<g>
									<path class="st12" d="M830.4,557.8l0.1,38.1c0,8.2-6.9,15-15.5,15c-8.6,0-15.6-6.6-15.6-14.9l-0.1-38.1"/>
									<g>
										<ellipse class="st42" cx="809.9" cy="573.3" rx="4.3" ry="4.1"/>
										<path class="st42" d="M818.9,584.3c0-1.3,1.1-2.4,2.5-2.4c1.4,0,2.5,1.1,2.5,2.4c0,1.3-1.1,2.4-2.5,2.4
											C820,586.6,818.9,585.6,818.9,584.3z"/>
										<ellipse class="st42" cx="809.9" cy="596.9" rx="2.5" ry="2.4"/>
									</g>
								</g>
							</g>
						</g>
						<g>
							<g>
								<rect x="592.4" y="539.8" class="st26" width="301.7" height="8"/>
							</g>
							<g>
								<rect x="698.9" y="543.3" class="st26" width="8.3" height="87.2"/>
							</g>
							<g>
								<rect x="776.3" y="543.8" class="st26" width="8.3" height="86.7"/>
							</g>
							<g>
								<path class="st43" d="M694.1,633.2L694.1,633.2c0-2.6,1.7-4.7,3.7-4.7h9.9c2.1,0,3.7,2.1,3.7,4.7l0,0"/>
								<path class="st26" d="M712.3,633.2h-1.7c0-2.2-1.3-3.9-2.9-3.9h-9.9c-1.6,0-2.9,1.8-2.9,3.9h-1.7c0-3,2.1-5.5,4.6-5.5h9.9
									C710.3,627.7,712.3,630.2,712.3,633.2z"/>
							</g>
							<g>
								<path class="st43" d="M771.8,633.2L771.8,633.2c0-2.6,1.7-4.7,3.7-4.7h9.9c2.1,0,3.7,2.1,3.7,4.7l0,0"/>
								<path class="st26" d="M790,633.2h-1.7c0-2.2-1.3-3.9-2.9-3.9h-9.9c-1.6,0-2.9,1.8-2.9,3.9h-1.7c0-3,2.1-5.5,4.6-5.5h9.9
									C788,627.7,790,630.2,790,633.2z"/>
							</g>
						</g>
					</g>
				</g>
				<g class="st0">
					<g class="st8">
						<linearGradient id="SVGID_12_" gradientUnits="userSpaceOnUse" x1="1015.7384" y1="504.5254" x2="1428.3168" y2="504.5254">
							<stop  offset="0" style="stop-color:#1D1D1B"/>
							<stop  offset="8.962709e-02" style="stop-color:#1D1D1B;stop-opacity:0.9104"/>
							<stop  offset="1" style="stop-color:#1D1D1B;stop-opacity:0"/>
						</linearGradient>
						<path class="st44" d="M1015.7,525.5L1428.3,823V366.9l-261-180.8l-26.3,61.1c0,0,107.1,72,110.7,119.7
							c2.5,32.8-77.5,106.4-77.5,106.4L1015.7,525.5z"/>
					</g>
					<g class="st8">
						<path class="st45" d="M1219.5,487H1198c0.2-3.4,0.3-7.3,0.3-11.6c0-1.1-0.1-2.1-0.2-3.2c40.3-17.1,68.5-56,68.5-101.1
							c0-51.8-37.1-95.3-86.9-107.1c-2.5-5.5-7.5-9.7-13.6-11.3l18-57l0.6,0.2c2.9,0.8,5.9-0.9,6.7-3.6l1.8-6
							c0.8-2.8-0.9-5.7-3.8-6.5l-53.3-14.2c-2.9-0.8-5.9,0.9-6.7,3.6l-1.8,6c-0.7,2.5,0.5,5,2.9,6.1l-33.1,104.9l-1.3-0.4l-8.8,28
							l5.7,1.7c-0.2,0.5-0.5,1-0.6,1.5c-1.2,3.8,0.2,7.8,3.2,10.2L1089,351c-0.9,3.2,1.1,6.5,4.5,7.3l22.2,5.6
							c3.3,0.8,6.8-1.1,7.7-4.3l6.4-23.1c3.4-0.7,6.4-3.2,7.5-6.6c0.2-0.5,0.3-1.1,0.3-1.6l5.7,1.7l8.8-28l-1.3-0.4l3.3-10.4
							c2,0.6,4.2,1,6.5,1c6,0,11.3-2.4,15.2-6.2c38.9,10,67.7,44.3,67.7,85.1c0,36.3-22.7,67.5-55.1,80.9
							c-6.2-5.9-14.8-9.6-24.3-9.6c-12.1,0-22.8,6-28.9,15.1c-19.3-3.6-36.8-13.3-50-27.5h76.2v-22.5H1053v22.5h3.3
							c0.3,0.9,0.8,1.9,1.4,2.7c16.9,24.2,42.8,40.7,71.7,46.4c0,2.8,0.1,5.4,0.3,7.8h-80.9c-14.3,0-25.8,19.1-25.8,42.7h222.3
							C1245.3,506.2,1233.7,487,1219.5,487z"/>
						<g>
							<g>
								<g>
									<path class="st46" d="M1144.4,477.2c-38,0-73.4-18.2-94.7-48.7c-3.6-5.1-2.1-12,3.2-15.5c5.4-3.4,12.6-2,16.2,3.1
										c17,24.3,45.1,38.8,75.3,38.8c50.1,0,90.9-39.5,90.9-88c0-48.6-40.8-88.1-90.9-88.1c-6.4,0-11.6-5-11.6-11.2
										c0-6.2,5.2-11.2,11.6-11.2c63,0,114.2,49.5,114.2,110.4S1207.4,477.2,1144.4,477.2z"/>
								</g>
								<polygon class="st20" points="1153.9,425.8 1153.9,425.8 1045.8,425.8 1045.8,425.8 1045.8,403.3 1045.8,403.3 
									1153.9,403.3 1153.9,403.3 								"/>
								<g>
									<path class="st20" d="M1015.7,525.5L1015.7,525.5c0-23.6,11.6-42.7,25.8-42.7h170.6c14.3,0,25.8,19.1,25.8,42.7l0,0"/>
									<g>
										<path class="st20" d="M1191.1,471.2c0,54.4-15.4,33-34.4,33c-19,0-34.4,21.4-34.4-33c0-18.2,15.4-33,34.4-33
											C1175.7,438.2,1191.1,453,1191.1,471.2z"/>
										<ellipse class="st46" cx="1156.6" cy="465.7" rx="10.7" ry="10.2"/>
									</g>
								</g>
							</g>
							<g>
								<g>
									<path class="st46" d="M1116.1,355.4c-0.9,3.2-4.3,5.1-7.7,4.3l-22.2-5.6c-3.3-0.8-5.3-4.1-4.5-7.3l10.6-38.7
										c0.9-3.2,4.3-5.1,7.6-4.3l22.2,5.6c3.3,0.8,5.3,4.1,4.5,7.3L1116.1,355.4z"/>
									<g>
										<path class="st46" d="M1129.9,325.7c-1.6,5.1-7.2,8-12.6,6.5l-25.5-7.4c-5.3-1.5-8.4-6.9-6.7-12l0,0
											c1.6-5.1,7.2-8,12.6-6.5l25.5,7.4C1128.5,315.2,1131.5,320.5,1129.9,325.7L1129.9,325.7z"/>
										<polygon class="st46" points="1134.9,324.7 1081.5,309.3 1123.9,174.9 1177.2,190.4 										"/>
										<polygon class="st20" points="1136,325.7 1080,309.5 1088.8,281.6 1144.8,297.7 										"/>
									</g>
									<path class="st20" d="M1184.3,187.9c-0.8,2.8-3.8,4.4-6.7,3.6l-53.3-14.2c-2.9-0.8-4.6-3.7-3.8-6.5l1.8-6
										c0.8-2.8,3.8-4.4,6.7-3.6l53.3,14.2c2.9,0.8,4.6,3.7,3.8,6.5L1184.3,187.9z"/>
								</g>
								<ellipse class="st20" cx="1153.2" cy="267.8" rx="21.1" ry="20.2"/>
							</g>
						</g>
					</g>
				</g>
			</g>
		</g>
	</g>
	<linearGradient id="SVGID_13_" gradientUnits="userSpaceOnUse" x1="661.3208" y1="310.6421" x2="661.3208" y2="310.6421">
		<stop  offset="0" style="stop-color:#1D1D1B"/>
		<stop  offset="8.962709e-02" style="stop-color:#1D1D1B;stop-opacity:0.9104"/>
		<stop  offset="1" style="stop-color:#1D1D1B;stop-opacity:0"/>
	</linearGradient>
	<path class="st47" d="M661.3,310.6"/>
	<rect x="238.5" y="543.5" class="st48" width="513.3" height="136.9"/>
	<text transform="matrix(1 0 0 1 238.4992 628.8057)" class="st10 st49 st50">MyLab</text>
</g>
</svg>
